<svg xmlns="http://www.w3.org/2000/svg" xmlns:xlink="http://www.w3.org/1999/xlink" width="230" zoomAndPan="magnify" viewBox="0 0 172.5 30.000001" height="40" preserveAspectRatio="xMidYMid meet" version="1.0"><defs><clipPath id="a4075d39ad"><path d="M 2.539062 2.203125 L 169.476562 2.203125 L 169.476562 26.882812 L 2.539062 26.882812 Z M 2.539062 2.203125 " clip-rule="nonzero"/></clipPath></defs><g clip-path="url(#a4075d39ad)"><path fill="#DCDCDC" d="M 11.664062 12.871094 C 12.90625 12.539062 14.148438 12.257812 15.375 12.023438 C 15.769531 11.953125 16.136719 12.207031 16.214844 12.601562 C 16.285156 12.988281 16.03125 13.363281 15.636719 13.433594 C 14.445312 13.652344 13.246094 13.925781 12.039062 14.257812 C 12.003906 14.257812 11.976562 14.269531 11.953125 14.277344 C 11.566406 14.382812 11.171875 14.152344 11.074219 13.777344 C 10.972656 13.390625 11.199219 12.996094 11.574219 12.898438 C 11.601562 12.890625 11.636719 12.882812 11.664062 12.871094 Z M 20.480469 11.347656 C 21.757812 11.242188 23.019531 11.1875 24.277344 11.179688 C 24.683594 11.179688 24.996094 11.496094 25.003906 11.890625 C 25.003906 12.285156 24.691406 12.609375 24.296875 12.609375 C 23.0625 12.617188 21.835938 12.671875 20.59375 12.777344 C 20.566406 12.777344 20.539062 12.777344 20.503906 12.777344 C 20.113281 12.8125 19.769531 12.523438 19.734375 12.125 C 19.707031 11.730469 19.996094 11.378906 20.390625 11.355469 C 20.417969 11.347656 20.453125 11.347656 20.480469 11.347656 Z M 29.417969 11.371094 C 30.679688 11.476562 31.929688 11.617188 33.191406 11.785156 C 33.578125 11.847656 33.859375 12.207031 33.796875 12.59375 C 33.742188 12.988281 33.382812 13.257812 32.992188 13.207031 C 31.765625 13.039062 30.539062 12.898438 29.304688 12.800781 C 29.269531 12.792969 29.242188 12.792969 29.21875 12.792969 C 28.824219 12.757812 28.527344 12.417969 28.558594 12.023438 C 28.585938 11.625 28.9375 11.335938 29.332031 11.363281 C 29.355469 11.363281 29.382812 11.371094 29.417969 11.371094 Z M 38.234375 12.652344 C 39.46875 12.90625 40.695312 13.179688 41.921875 13.476562 C 42.304688 13.574219 42.542969 13.960938 42.457031 14.347656 C 42.359375 14.734375 41.972656 14.96875 41.589844 14.875 C 40.378906 14.582031 39.164062 14.3125 37.953125 14.058594 C 37.921875 14.058594 37.894531 14.046875 37.867188 14.039062 C 37.472656 13.960938 37.226562 13.582031 37.308594 13.199219 C 37.386719 12.8125 37.761719 12.558594 38.148438 12.636719 C 38.175781 12.644531 38.207031 12.652344 38.234375 12.652344 Z M 46.859375 14.777344 C 48.066406 15.117188 49.265625 15.46875 50.476562 15.839844 C 50.851562 15.953125 51.070312 16.347656 50.957031 16.734375 C 50.84375 17.109375 50.441406 17.320312 50.0625 17.207031 C 48.863281 16.847656 47.671875 16.496094 46.472656 16.164062 L 46.386719 16.136719 C 46.011719 16.03125 45.78125 15.628906 45.894531 15.25 C 46 14.875 46.394531 14.644531 46.773438 14.757812 Z M 55.335938 17.347656 C 56.523438 17.71875 57.714844 18.101562 58.914062 18.480469 C 59.292969 18.601562 59.503906 19.007812 59.378906 19.375 C 59.265625 19.761719 58.863281 19.964844 58.488281 19.847656 C 57.285156 19.472656 56.097656 19.085938 54.90625 18.707031 L 54.816406 18.683594 C 54.441406 18.566406 54.230469 18.164062 54.355469 17.785156 C 54.46875 17.410156 54.871094 17.199219 55.246094 17.3125 Z M 63.757812 20 C 64.949219 20.367188 66.140625 20.726562 67.339844 21.078125 C 67.722656 21.183594 67.933594 21.585938 67.828125 21.964844 C 67.714844 22.339844 67.320312 22.5625 66.945312 22.445312 C 65.734375 22.097656 64.535156 21.734375 63.335938 21.367188 L 63.25 21.339844 C 62.871094 21.226562 62.664062 20.824219 62.777344 20.445312 C 62.890625 20.070312 63.292969 19.859375 63.667969 19.972656 Z M 72.214844 22.421875 C 73.414062 22.738281 74.621094 23.027344 75.839844 23.308594 C 76.226562 23.386719 76.46875 23.773438 76.382812 24.15625 C 76.296875 24.542969 75.910156 24.789062 75.523438 24.703125 C 74.296875 24.421875 73.074219 24.121094 71.855469 23.808594 C 71.828125 23.796875 71.792969 23.789062 71.769531 23.789062 C 71.382812 23.683594 71.15625 23.296875 71.25 22.910156 C 71.355469 22.527344 71.742188 22.296875 72.128906 22.394531 C 72.152344 22.402344 72.1875 22.410156 72.214844 22.421875 Z M 80.777344 24.289062 C 82.003906 24.507812 83.230469 24.695312 84.464844 24.84375 C 84.847656 24.894531 85.128906 25.253906 85.085938 25.648438 C 85.03125 26.035156 84.675781 26.316406 84.28125 26.265625 C 83.027344 26.105469 81.777344 25.921875 80.542969 25.703125 C 80.507812 25.703125 80.480469 25.695312 80.453125 25.695312 C 80.058594 25.625 79.796875 25.253906 79.867188 24.859375 C 79.9375 24.472656 80.304688 24.210938 80.691406 24.28125 C 80.726562 24.28125 80.75 24.289062 80.777344 24.289062 Z M 89.472656 25.308594 C 90.707031 25.378906 91.949219 25.421875 93.183594 25.4375 C 93.578125 25.449219 93.894531 25.773438 93.894531 26.167969 C 93.882812 26.5625 93.5625 26.878906 93.167969 26.871094 C 91.90625 26.859375 90.644531 26.816406 89.382812 26.738281 C 89.359375 26.738281 89.324219 26.738281 89.296875 26.730469 C 88.902344 26.710938 88.597656 26.371094 88.621094 25.972656 C 88.648438 25.578125 88.992188 25.28125 89.382812 25.300781 C 89.410156 25.300781 89.4375 25.308594 89.472656 25.308594 Z M 98.21875 25.359375 C 99.460938 25.300781 100.695312 25.21875 101.941406 25.105469 C 102.332031 25.078125 102.675781 25.371094 102.710938 25.765625 C 102.746094 26.160156 102.457031 26.5 102.0625 26.535156 C 100.800781 26.648438 99.539062 26.730469 98.289062 26.789062 C 98.253906 26.789062 98.226562 26.789062 98.191406 26.789062 C 97.796875 26.808594 97.464844 26.5 97.449219 26.105469 C 97.429688 25.710938 97.738281 25.378906 98.132812 25.359375 C 98.15625 25.359375 98.191406 25.359375 98.21875 25.359375 Z M 106.949219 24.542969 C 108.171875 24.367188 109.398438 24.175781 110.625 23.964844 C 111.019531 23.894531 111.386719 24.15625 111.457031 24.542969 C 111.527344 24.929688 111.265625 25.308594 110.871094 25.378906 C 109.628906 25.589844 108.382812 25.789062 107.140625 25.957031 C 107.113281 25.964844 107.078125 25.964844 107.054688 25.972656 C 106.660156 26.027344 106.300781 25.753906 106.246094 25.359375 C 106.195312 24.972656 106.464844 24.605469 106.851562 24.554688 C 106.886719 24.554688 106.914062 24.542969 106.949219 24.542969 Z M 115.570312 22.980469 C 116.789062 22.710938 117.996094 22.429688 119.207031 22.121094 C 119.589844 22.027344 119.984375 22.253906 120.082031 22.640625 C 120.175781 23.027344 119.941406 23.414062 119.554688 23.507812 C 118.339844 23.816406 117.113281 24.105469 115.886719 24.378906 C 115.851562 24.386719 115.824219 24.394531 115.800781 24.402344 C 115.414062 24.484375 115.027344 24.238281 114.941406 23.851562 C 114.863281 23.464844 115.109375 23.085938 115.492188 23 C 115.519531 22.992188 115.546875 22.992188 115.570312 22.980469 Z M 124.082031 20.796875 C 125.28125 20.445312 126.472656 20.085938 127.65625 19.699219 C 128.03125 19.585938 128.433594 19.796875 128.554688 20.164062 C 128.679688 20.550781 128.46875 20.945312 128.09375 21.070312 C 126.894531 21.457031 125.683594 21.824219 124.484375 22.175781 C 124.449219 22.175781 124.421875 22.183594 124.398438 22.191406 C 124.019531 22.304688 123.617188 22.085938 123.511719 21.710938 C 123.398438 21.324219 123.617188 20.929688 123.996094 20.824219 C 124.03125 20.816406 124.054688 20.804688 124.082031 20.796875 Z M 132.453125 18.09375 C 133.625 17.683594 134.800781 17.261719 135.964844 16.820312 C 136.339844 16.679688 136.75 16.875 136.890625 17.242188 C 137.023438 17.613281 136.839844 18.023438 136.472656 18.164062 C 135.289062 18.601562 134.105469 19.03125 132.925781 19.445312 L 132.835938 19.480469 C 132.46875 19.613281 132.058594 19.410156 131.925781 19.042969 C 131.796875 18.664062 131.996094 18.261719 132.363281 18.128906 Z M 140.683594 14.988281 C 141.847656 14.523438 143.003906 14.046875 144.148438 13.566406 C 144.507812 13.40625 144.929688 13.582031 145.085938 13.953125 C 145.234375 14.3125 145.070312 14.734375 144.703125 14.882812 C 143.546875 15.375 142.382812 15.847656 141.214844 16.320312 L 141.136719 16.355469 C 140.769531 16.496094 140.351562 16.320312 140.199219 15.953125 C 140.0625 15.585938 140.234375 15.171875 140.605469 15.023438 Z M 148.796875 11.554688 C 149.945312 11.054688 151.082031 10.539062 152.214844 10.019531 C 152.574219 9.855469 153 10.019531 153.167969 10.378906 C 153.324219 10.730469 153.167969 11.160156 152.808594 11.328125 C 151.671875 11.847656 150.523438 12.363281 149.375 12.871094 L 149.296875 12.90625 C 148.929688 13.066406 148.511719 12.898438 148.351562 12.539062 C 148.195312 12.179688 148.351562 11.75 148.71875 11.589844 Z M 156.808594 7.878906 C 157.949219 7.34375 159.078125 6.808594 160.199219 6.265625 C 160.546875 6.097656 160.976562 6.246094 161.152344 6.597656 C 161.320312 6.957031 161.171875 7.386719 160.820312 7.554688 C 159.691406 8.097656 158.5625 8.644531 157.421875 9.179688 L 157.34375 9.222656 C 156.984375 9.390625 156.554688 9.230469 156.390625 8.878906 C 156.222656 8.519531 156.371094 8.089844 156.730469 7.921875 Z M 164.75 4.042969 C 165.878906 3.484375 167 2.929688 168.113281 2.378906 C 168.472656 2.191406 168.902344 2.34375 169.078125 2.691406 C 169.25 3.050781 169.101562 3.484375 168.753906 3.660156 C 167.640625 4.210938 166.511719 4.773438 165.390625 5.324219 L 165.304688 5.371094 C 164.953125 5.535156 164.523438 5.394531 164.347656 5.035156 C 164.171875 4.683594 164.320312 4.253906 164.671875 4.078125 Z M 3.878906 17.269531 C 3.519531 17.4375 3.089844 17.277344 2.925781 16.917969 C 2.757812 16.566406 2.914062 16.136719 3.265625 15.96875 C 4.4375 15.417969 5.613281 14.917969 6.769531 14.46875 C 7.136719 14.328125 7.546875 14.515625 7.695312 14.882812 C 7.835938 15.25 7.652344 15.671875 7.285156 15.8125 C 6.15625 16.242188 5.015625 16.726562 3.878906 17.269531 Z M 3.878906 17.269531 " fill-opacity="1" fill-rule="evenodd"/></g></svg>