<svg xmlns="http://www.w3.org/2000/svg" xmlns:xlink="http://www.w3.org/1999/xlink" width="500" zoomAndPan="magnify" viewBox="0 0 375 374.999991" height="500" preserveAspectRatio="xMidYMid meet" version="1.0"><defs><filter x="0%" y="0%" width="100%" height="100%" id="43665498de"><feColorMatrix values="0 0 0 0 1 0 0 0 0 1 0 0 0 0 1 0 0 0 1 0" color-interpolation-filters="sRGB"/></filter><g/><mask id="a617934870"><g filter="url(#43665498de)"><rect x="-37.5" width="450" fill="#000000" y="-37.499999" height="449.999989" fill-opacity="0.25"/></g></mask><clipPath id="3838bec5c0"><path d="M 14 42 L 199 42 L 199 184 L 14 184 Z M 14 42 " clip-rule="nonzero"/></clipPath><clipPath id="585abdd30d"><path d="M 233.941406 152.007812 L 43.078125 230.171875 L -24.855469 64.292969 L 166.007812 -13.871094 Z M 233.941406 152.007812 " clip-rule="nonzero"/></clipPath><clipPath id="3c34f646f9"><path d="M 233.941406 152.007812 L 43.078125 230.171875 L -24.855469 64.292969 L 166.007812 -13.871094 Z M 233.941406 152.007812 " clip-rule="nonzero"/></clipPath><clipPath id="3143b1830e"><rect x="0" width="211" y="0" height="213"/></clipPath><clipPath id="e08af51277"><path d="M 76 47 L 304 47 L 304 273.855469 L 76 273.855469 Z M 76 47 " clip-rule="nonzero"/></clipPath></defs><g mask="url(#a617934870)"><g transform="matrix(1, 0, 0, 1, 44, 59)"><g clip-path="url(#3143b1830e)"><g clip-path="url(#3838bec5c0)"><g clip-path="url(#585abdd30d)"><g clip-path="url(#3c34f646f9)"><path fill="#ffffff" d="M 83.183594 178.578125 C 48.289062 165.960938 -17.355469 82.011719 32.59375 49.097656 C 66.367188 26.820312 71.730469 62.457031 118.015625 90.339844 C 133.351562 99.558594 208.386719 89.960938 197.339844 137.496094 C 190.789062 165.664062 128.8125 195.058594 83.183594 178.578125 Z M 83.183594 178.578125 " fill-opacity="1" fill-rule="nonzero"/></g></g></g></g></g></g><g clip-path="url(#e08af51277)"><path fill="#ffffff" d="M 257.882812 69.699219 C 257.734375 69.582031 257.570312 69.5 257.390625 69.449219 C 257.207031 69.398438 257.023438 69.386719 256.835938 69.410156 C 256.652344 69.433594 256.476562 69.496094 256.3125 69.589844 C 256.152344 69.683594 256.015625 69.808594 255.902344 69.960938 C 255.789062 70.109375 255.710938 70.277344 255.667969 70.460938 C 255.621094 70.644531 255.613281 70.828125 255.644531 71.011719 C 255.671875 71.199219 255.738281 71.371094 255.839844 71.53125 C 255.9375 71.691406 256.066406 71.824219 256.21875 71.933594 C 284.023438 92.613281 300.203125 124.429688 300.625 159.230469 C 300.765625 170.773438 299.144531 182.0625 295.761719 193.101562 C 293.621094 195.828125 291.492188 198.5625 289.285156 201.238281 C 286.804688 204.324219 284.164062 207.269531 281.371094 210.074219 C 280.738281 210.695312 280.09375 211.300781 279.433594 211.882812 C 279.113281 212.167969 278.792969 212.441406 278.464844 212.710938 L 278.011719 213.078125 L 277.816406 213.234375 C 277.964844 213.113281 277.773438 213.234375 277.734375 213.292969 C 276.140625 214.5 274.425781 215.550781 272.785156 216.695312 C 270.992188 217.871094 269.382812 219.257812 267.949219 220.851562 C 266.566406 222.457031 265.59375 224.285156 265.035156 226.328125 C 264.507812 228.304688 264.394531 230.300781 264.695312 232.320312 C 264.992188 234.34375 265.683594 236.222656 266.765625 237.957031 C 267.050781 238.394531 267.367188 238.808594 267.695312 239.214844 C 265.15625 241.734375 262.503906 244.117188 259.730469 246.375 C 256.960938 248.632812 254.085938 250.746094 251.105469 252.722656 C 248.128906 254.699219 245.058594 256.523438 241.902344 258.199219 C 238.746094 259.875 235.515625 261.390625 232.207031 262.75 C 228.902344 264.109375 225.539062 265.304688 222.117188 266.332031 C 218.695312 267.363281 215.230469 268.222656 211.722656 268.914062 C 208.21875 269.605469 204.683594 270.125 201.128906 270.46875 C 197.570312 270.816406 194.003906 270.984375 190.429688 270.980469 L 190.242188 270.980469 C 186.707031 270.996094 183.179688 270.839844 179.664062 270.511719 C 176.144531 270.1875 172.648438 269.691406 169.179688 269.027344 C 165.707031 268.363281 162.277344 267.53125 158.886719 266.535156 C 155.496094 265.539062 152.160156 264.382812 148.882812 263.066406 C 145.601562 261.75 142.394531 260.277344 139.257812 258.648438 C 136.121094 257.019531 133.070312 255.246094 130.105469 253.324219 C 127.140625 251.402344 124.273438 249.339844 121.507812 247.140625 C 118.742188 244.941406 116.085938 242.617188 113.546875 240.160156 C 114.382812 238.699219 115.027344 237.160156 115.476562 235.539062 C 115.925781 233.917969 116.167969 232.265625 116.203125 230.582031 C 116.238281 228.898438 116.066406 227.238281 115.683594 225.601562 C 115.300781 223.960938 114.722656 222.394531 113.949219 220.902344 C 112.402344 217.941406 109.960938 215.722656 107.65625 213.386719 C 107.082031 212.808594 106.558594 212.234375 106.050781 211.65625 L 105.699219 211.230469 L 105.667969 211.191406 C 105.613281 211.132812 105.570312 211.058594 105.523438 210.996094 C 105.296875 210.695312 105.085938 210.386719 104.890625 210.0625 C 104.699219 209.765625 104.527344 209.457031 104.371094 209.136719 L 104.25 208.871094 C 104.179688 208.695312 104.117188 208.515625 104.054688 208.332031 C 103.945312 207.996094 103.859375 207.652344 103.796875 207.308594 C 103.796875 207.238281 103.761719 207.144531 103.753906 207.066406 L 103.753906 206.996094 C 103.753906 206.804688 103.753906 206.621094 103.722656 206.421875 C 103.722656 206.121094 103.722656 205.84375 103.761719 205.527344 C 103.761719 205.527344 103.761719 205.558594 103.761719 205.574219 C 103.78125 205.496094 103.792969 205.414062 103.800781 205.332031 C 103.800781 205.175781 103.859375 205.023438 103.898438 204.867188 C 103.96875 204.578125 104.050781 204.296875 104.148438 204.019531 C 104.199219 203.871094 104.257812 203.726562 104.308594 203.578125 L 104.394531 203.382812 C 104.945312 202.214844 105.613281 201.121094 106.398438 200.101562 C 106.449219 200.03125 106.507812 199.960938 106.554688 199.894531 L 106.828125 199.542969 L 107.496094 198.726562 C 107.921875 198.203125 108.355469 197.6875 108.773438 197.164062 C 109.679688 196.089844 110.503906 194.957031 111.253906 193.769531 C 112.730469 191.324219 113.476562 188.398438 112.566406 185.609375 C 111.492188 182.332031 108.640625 179.980469 105.625 178.515625 C 102.046875 176.863281 98.285156 175.945312 94.34375 175.757812 C 90.34375 175.511719 86.425781 175.96875 82.585938 177.125 C 82.085938 177.273438 81.597656 177.441406 81.113281 177.613281 C 80.289062 172.226562 79.859375 166.808594 79.824219 161.359375 C 79.714844 148.402344 81.824219 135.820312 86.15625 123.605469 C 86.460938 122.765625 86.863281 121.976562 87.363281 121.230469 C 87.859375 120.488281 88.4375 119.816406 89.097656 119.210938 C 89.757812 118.605469 90.480469 118.089844 91.261719 117.660156 C 92.046875 117.230469 92.871094 116.898438 93.734375 116.664062 C 98.410156 115.359375 101.925781 115.347656 103.625 116.664062 C 104.5625 117.375 105.015625 118.535156 105.015625 120.207031 C 105.015625 125.671875 102.507812 130.917969 99.835938 136.472656 C 97.164062 142.023438 94.398438 147.839844 94.398438 153.941406 C 94.398438 157.253906 94.71875 160.78125 97.109375 161.773438 C 100.386719 163.132812 104.96875 159.296875 117.976562 146.289062 C 125.507812 138.761719 132.789062 137.082031 138.636719 135.707031 C 145.316406 134.152344 151.089844 132.828125 153.054688 123.539062 C 154.832031 115.117188 151.777344 107.011719 149.082031 99.859375 C 146.480469 92.953125 144.027344 86.464844 146.238281 80.863281 C 148.671875 74.695312 151.363281 72.121094 153.664062 70.414062 C 154.257812 69.984375 154.816406 69.507812 155.335938 68.988281 C 155.859375 68.472656 156.332031 67.914062 156.765625 67.320312 C 157.199219 66.726562 157.578125 66.101562 157.914062 65.449219 C 158.246094 64.792969 158.523438 64.117188 158.75 63.417969 C 158.976562 62.71875 159.144531 62.003906 159.257812 61.28125 C 159.367188 60.554688 159.421875 59.824219 159.417969 59.089844 C 159.414062 58.355469 159.351562 57.625 159.234375 56.902344 C 159.113281 56.175781 158.9375 55.464844 158.707031 54.769531 C 168.195312 51.953125 177.886719 50.441406 187.785156 50.226562 L 187.816406 50.226562 C 188.96875 50.226562 190.0625 50.191406 191.183594 50.226562 C 191.371094 50.226562 191.546875 50.191406 191.71875 50.121094 C 191.890625 50.050781 192.039062 49.949219 192.171875 49.820312 C 192.300781 49.6875 192.402344 49.539062 192.472656 49.367188 C 192.542969 49.195312 192.578125 49.019531 192.578125 48.835938 C 192.578125 48.648438 192.542969 48.472656 192.472656 48.300781 C 192.402344 48.128906 192.300781 47.980469 192.171875 47.847656 C 192.039062 47.71875 191.890625 47.617188 191.71875 47.546875 C 191.546875 47.476562 191.371094 47.441406 191.183594 47.441406 L 189.953125 47.441406 C 186.089844 47.445312 182.238281 47.644531 178.394531 48.039062 C 174.550781 48.4375 170.742188 49.027344 166.957031 49.816406 C 163.175781 50.605469 159.445312 51.582031 155.761719 52.75 C 152.082031 53.921875 148.46875 55.277344 144.925781 56.816406 C 141.382812 58.355469 137.925781 60.070312 134.558594 61.964844 C 131.191406 63.859375 127.929688 65.917969 124.773438 68.144531 C 121.617188 70.371094 118.585938 72.753906 115.671875 75.292969 C 112.761719 77.832031 109.984375 80.511719 107.347656 83.335938 C 107.21875 83.46875 107.121094 83.621094 107.054688 83.796875 C 106.988281 83.96875 106.957031 84.152344 106.960938 84.335938 C 106.964844 84.523438 107.007812 84.699219 107.085938 84.871094 C 107.160156 85.039062 107.269531 85.1875 107.402344 85.316406 C 107.539062 85.441406 107.695312 85.539062 107.871094 85.601562 C 108.046875 85.667969 108.226562 85.695312 108.410156 85.6875 C 108.597656 85.679688 108.773438 85.636719 108.945312 85.558594 C 109.113281 85.480469 109.257812 85.371094 109.386719 85.234375 C 115.769531 78.390625 122.910156 72.457031 130.808594 67.429688 C 138.703125 62.40625 147.101562 58.449219 156.007812 55.5625 C 156.195312 56.121094 156.339844 56.695312 156.441406 57.277344 C 156.539062 57.859375 156.589844 58.445312 156.597656 59.035156 C 156.601562 59.628906 156.558594 60.214844 156.472656 60.800781 C 156.382812 61.382812 156.25 61.957031 156.070312 62.519531 C 155.886719 63.085938 155.664062 63.628906 155.398438 64.15625 C 155.128906 64.683594 154.824219 65.1875 154.476562 65.664062 C 154.128906 66.144531 153.746094 66.589844 153.324219 67.007812 C 152.90625 67.425781 152.457031 67.804688 151.976562 68.152344 C 149.359375 70.089844 146.320312 72.992188 143.621094 79.816406 C 141.019531 86.414062 143.65625 93.414062 146.445312 100.8125 C 149.132812 107.941406 151.914062 115.308594 150.300781 122.933594 C 148.707031 130.460938 144.667969 131.40625 137.980469 132.960938 C 131.785156 134.40625 124.074219 136.195312 115.988281 144.289062 C 109.714844 150.554688 100.246094 160.019531 98.144531 159.164062 C 97.976562 159.097656 97.152344 158.519531 97.152344 153.910156 C 97.152344 148.441406 99.664062 143.199219 102.335938 137.644531 C 105.003906 132.089844 107.777344 126.277344 107.777344 120.175781 C 107.777344 117.609375 106.9375 115.667969 105.285156 114.421875 C 102.804688 112.539062 98.65625 112.390625 92.957031 113.984375 C 91.882812 114.28125 90.855469 114.699219 89.882812 115.242188 C 88.90625 115.785156 88.007812 116.4375 87.1875 117.195312 C 86.371094 117.953125 85.652344 118.796875 85.035156 119.726562 C 84.417969 120.65625 83.921875 121.648438 83.542969 122.699219 C 82.78125 124.824219 82.085938 126.96875 81.457031 129.136719 C 80.824219 131.300781 80.261719 133.484375 79.761719 135.6875 C 79.261719 137.886719 78.828125 140.101562 78.460938 142.328125 C 78.09375 144.554688 77.792969 146.789062 77.558594 149.035156 C 77.324219 151.28125 77.160156 153.53125 77.0625 155.785156 C 76.960938 158.039062 76.929688 160.292969 76.96875 162.550781 C 77.003906 164.808594 77.109375 167.0625 77.28125 169.3125 C 77.449219 171.5625 77.691406 173.804688 77.996094 176.039062 C 78.300781 178.277344 78.671875 180.5 79.113281 182.714844 C 79.550781 184.929688 80.054688 187.125 80.625 189.308594 C 81.199219 191.492188 81.832031 193.660156 82.535156 195.804688 C 83.234375 197.949219 83.996094 200.070312 84.824219 202.171875 C 85.652344 204.269531 86.542969 206.34375 87.492188 208.390625 C 88.445312 210.4375 89.457031 212.453125 90.527344 214.4375 C 91.601562 216.425781 92.730469 218.375 93.921875 220.292969 C 95.109375 222.210938 96.355469 224.09375 97.65625 225.9375 C 98.960938 227.78125 100.316406 229.582031 101.726562 231.34375 C 103.136719 233.105469 104.597656 234.824219 106.109375 236.5 C 107.621094 238.175781 109.183594 239.800781 110.792969 241.382812 C 112.402344 242.964844 114.058594 244.496094 115.761719 245.976562 C 117.464844 247.460938 119.207031 248.890625 120.996094 250.269531 C 122.785156 251.644531 124.613281 252.96875 126.476562 254.234375 C 128.34375 255.503906 130.25 256.714844 132.1875 257.871094 C 134.125 259.023438 136.097656 260.117188 138.105469 261.15625 C 140.109375 262.191406 142.144531 263.164062 144.207031 264.078125 C 146.269531 264.992188 148.359375 265.84375 150.472656 266.632812 C 152.585938 267.421875 154.722656 268.148438 156.882812 268.808594 C 159.039062 269.46875 161.214844 270.066406 163.40625 270.597656 C 165.601562 271.128906 167.808594 271.59375 170.03125 271.992188 C 172.25 272.390625 174.484375 272.722656 176.722656 272.988281 C 178.964844 273.25 181.210938 273.449219 183.464844 273.578125 C 185.71875 273.710938 187.972656 273.773438 190.230469 273.769531 L 190.429688 273.769531 C 192.296875 273.765625 194.160156 273.714844 196.023438 273.621094 C 197.882812 273.523438 199.742188 273.382812 201.597656 273.195312 C 203.453125 273.007812 205.304688 272.777344 207.148438 272.496094 C 208.992188 272.21875 210.828125 271.894531 212.65625 271.523438 C 214.484375 271.15625 216.300781 270.742188 218.109375 270.28125 C 219.914062 269.824219 221.710938 269.320312 223.492188 268.773438 C 225.273438 268.222656 227.042969 267.632812 228.796875 266.996094 C 230.550781 266.359375 232.285156 265.683594 234.003906 264.960938 C 235.726562 264.242188 237.425781 263.476562 239.109375 262.671875 C 240.789062 261.867188 242.453125 261.019531 244.089844 260.132812 C 245.730469 259.246094 247.347656 258.320312 248.941406 257.351562 C 250.539062 256.382812 252.105469 255.378906 253.652344 254.332031 C 255.195312 253.289062 256.714844 252.207031 258.207031 251.085938 C 259.695312 249.96875 261.160156 248.8125 262.59375 247.617188 C 264.027344 246.425781 265.429688 245.199219 266.804688 243.9375 C 268.175781 242.675781 269.519531 241.382812 270.828125 240.054688 C 272.136719 238.726562 273.414062 237.367188 274.65625 235.976562 C 275.898438 234.585938 277.105469 233.164062 278.277344 231.714844 C 279.449219 230.265625 280.585938 228.785156 281.683594 227.277344 C 282.78125 225.773438 283.84375 224.238281 284.867188 222.679688 C 285.890625 221.121094 286.875 219.539062 287.816406 217.929688 C 288.761719 216.324219 289.667969 214.691406 290.53125 213.039062 C 291.398438 211.386719 292.21875 209.714844 293 208.023438 C 293.78125 206.328125 294.523438 204.617188 295.21875 202.886719 C 295.917969 201.15625 296.570312 199.414062 297.179688 197.648438 C 297.792969 195.886719 298.359375 194.113281 298.882812 192.324219 C 299.40625 190.53125 299.882812 188.730469 300.316406 186.917969 C 300.75 185.105469 301.140625 183.28125 301.484375 181.449219 C 301.828125 179.613281 302.125 177.773438 302.378906 175.925781 C 302.632812 174.078125 302.839844 172.226562 303 170.367188 C 303.160156 168.511719 303.277344 166.648438 303.347656 164.785156 C 303.414062 162.921875 303.4375 161.058594 303.417969 159.195312 C 302.984375 123.519531 286.390625 90.898438 257.882812 69.699219 Z M 81.585938 180.4375 C 83.0625 179.890625 84.570312 179.453125 86.113281 179.132812 C 86.570312 179.039062 87.03125 178.953125 87.488281 178.878906 L 88.214844 178.769531 L 88.253906 178.769531 L 88.761719 178.707031 C 89.6875 178.609375 90.621094 178.546875 91.558594 178.523438 C 92.496094 178.5 93.511719 178.523438 94.488281 178.585938 C 94.957031 178.613281 95.414062 178.65625 95.882812 178.707031 L 96.421875 178.769531 L 96.648438 178.804688 L 97.027344 178.863281 C 98.902344 179.152344 100.738281 179.613281 102.53125 180.242188 L 103.105469 180.460938 L 103.386719 180.578125 C 103.765625 180.734375 104.140625 180.910156 104.503906 181.09375 C 105.203125 181.445312 105.871094 181.839844 106.511719 182.28125 C 106.664062 182.390625 106.828125 182.492188 106.972656 182.613281 L 107.214844 182.808594 C 107.53125 183.074219 107.835938 183.351562 108.125 183.644531 C 108.363281 183.875 108.585938 184.125 108.792969 184.386719 C 108.757812 184.339844 108.734375 184.316406 108.792969 184.4375 L 108.964844 184.679688 C 109.074219 184.84375 109.183594 185.007812 109.28125 185.183594 C 109.382812 185.347656 109.476562 185.523438 109.5625 185.699219 C 109.59375 185.757812 109.625 185.816406 109.648438 185.878906 C 109.652344 185.894531 109.652344 185.910156 109.648438 185.925781 C 109.824219 186.273438 109.9375 186.644531 109.988281 187.035156 C 110.035156 187.179688 110.066406 187.332031 110.082031 187.484375 L 110.082031 187.566406 C 110.085938 187.640625 110.085938 187.714844 110.082031 187.789062 C 110.105469 188.101562 110.105469 188.414062 110.082031 188.726562 C 110.082031 188.855469 109.972656 189.390625 110.082031 188.910156 C 110.050781 189.042969 110.039062 189.175781 110.011719 189.304688 C 109.976562 189.613281 109.921875 189.917969 109.851562 190.222656 C 109.769531 190.476562 109.671875 190.71875 109.582031 190.964844 L 109.496094 191.15625 L 109.277344 191.59375 C 108.980469 192.15625 108.652344 192.699219 108.292969 193.222656 C 108.125 193.46875 107.953125 193.710938 107.773438 193.953125 C 107.679688 194.078125 107.589844 194.207031 107.492188 194.328125 C 107.433594 194.390625 107.386719 194.464844 107.328125 194.535156 C 106.519531 195.566406 105.667969 196.566406 104.84375 197.589844 C 103.199219 199.652344 101.527344 201.925781 101.0625 204.585938 C 100.769531 206.128906 100.867188 207.648438 101.355469 209.144531 C 101.921875 210.695312 102.746094 212.097656 103.824219 213.351562 C 104.832031 214.53125 105.902344 215.660156 107.023438 216.734375 C 107.601562 217.308594 108.140625 217.839844 108.675781 218.410156 C 108.925781 218.675781 109.167969 218.9375 109.402344 219.210938 L 109.792969 219.675781 L 109.925781 219.835938 L 110.023438 219.957031 C 110.503906 220.601562 110.9375 221.269531 111.324219 221.972656 C 111.503906 222.292969 111.667969 222.628906 111.832031 222.960938 C 111.910156 223.140625 111.992188 223.3125 112.066406 223.492188 L 112.222656 223.890625 C 112.503906 224.640625 112.738281 225.410156 112.925781 226.191406 C 113.003906 226.554688 113.078125 226.921875 113.148438 227.289062 C 113.148438 227.46875 113.21875 227.660156 113.234375 227.867188 C 113.234375 228.011719 113.265625 228.148438 113.28125 228.292969 C 113.359375 229.070312 113.390625 229.851562 113.375 230.632812 C 113.375 231.027344 113.34375 231.417969 113.308594 231.785156 C 113.308594 232 113.269531 232.210938 113.246094 232.425781 C 113.246094 232.425781 113.246094 232.574219 113.246094 232.613281 C 113.246094 232.65625 113.246094 232.734375 113.21875 232.792969 C 113.097656 233.570312 112.925781 234.339844 112.707031 235.09375 C 112.597656 235.46875 112.476562 235.835938 112.34375 236.207031 L 112.113281 236.78125 L 111.957031 237.132812 C 111.800781 237.460938 111.640625 237.777344 111.46875 238.09375 C 107.597656 234.179688 104.042969 229.996094 100.808594 225.542969 C 97.570312 221.09375 94.683594 216.421875 92.148438 211.535156 C 89.617188 206.648438 87.464844 201.597656 85.695312 196.386719 C 83.921875 191.171875 82.554688 185.859375 81.585938 180.4375 Z M 267.429688 228.449219 Z M 268.21875 234.75 L 268.261719 234.847656 C 268.238281 234.8125 268.226562 234.777344 268.21875 234.738281 Z M 269.671875 237.25 L 269.484375 236.996094 C 269.351562 236.8125 269.226562 236.617188 269.105469 236.417969 C 268.859375 236.035156 268.636719 235.632812 268.4375 235.222656 L 268.285156 234.886719 C 268.191406 234.65625 268.105469 234.429688 268.023438 234.199219 C 267.875 233.765625 267.75 233.324219 267.644531 232.878906 C 267.597656 232.671875 267.558594 232.464844 267.519531 232.257812 C 267.519531 232.136719 267.476562 232.023438 267.460938 231.902344 C 267.441406 231.78125 267.460938 231.808594 267.460938 231.792969 C 267.410156 231.335938 267.378906 230.875 267.367188 230.414062 C 267.355469 229.957031 267.367188 229.5 267.414062 229.046875 C 267.414062 228.925781 267.414062 228.796875 267.453125 228.679688 L 267.453125 228.625 C 267.523438 228.390625 267.5625 228.148438 267.574219 227.902344 C 267.667969 227.453125 267.78125 227.007812 267.914062 226.570312 C 267.976562 226.375 268.046875 226.175781 268.121094 225.996094 C 268.195312 225.816406 268.214844 225.765625 268.253906 225.648438 C 268.292969 225.535156 268.214844 225.738281 268.214844 225.738281 C 268.234375 225.671875 268.265625 225.605469 268.300781 225.546875 C 268.488281 225.128906 268.699219 224.726562 268.933594 224.332031 C 269.046875 224.136719 269.175781 223.941406 269.300781 223.757812 L 269.496094 223.480469 L 269.636719 223.289062 C 270.25 222.515625 270.929688 221.804688 271.671875 221.15625 C 272.046875 220.828125 272.433594 220.511719 272.824219 220.199219 L 272.90625 220.136719 L 273.226562 219.894531 L 273.835938 219.453125 C 275.484375 218.300781 277.199219 217.222656 278.828125 216.039062 C 280.21875 215.011719 281.535156 213.898438 282.78125 212.699219 C 285.523438 210.03125 288.105469 207.210938 290.523438 204.246094 C 291.371094 203.230469 292.199219 202.203125 293.027344 201.175781 C 290.355469 207.894531 287.054688 214.289062 283.125 220.355469 C 279.195312 226.425781 274.710938 232.050781 269.671875 237.238281 Z M 269.671875 237.25 " fill-opacity="1" fill-rule="nonzero"/></g><path fill="#ffffff" d="M 186.28125 135.953125 C 186.679688 137.191406 187.289062 138.3125 188.113281 139.320312 C 188.933594 140.324219 189.910156 141.148438 191.042969 141.789062 C 192.316406 142.464844 193.671875 142.867188 195.105469 142.996094 C 196.542969 143.128906 197.949219 142.972656 199.324219 142.539062 C 202.011719 141.714844 204.410156 140.371094 206.511719 138.507812 C 206.984375 139.007812 207.472656 139.503906 207.980469 139.976562 C 210.109375 142.074219 212.632812 143.449219 215.550781 144.101562 C 218.75 144.734375 221.996094 144.402344 225.21875 144.179688 C 228.136719 143.925781 231.035156 144.046875 233.921875 144.539062 C 239.492188 145.605469 244.683594 148.21875 248.402344 152.546875 C 249.289062 153.558594 250.066406 154.652344 250.734375 155.816406 C 251.402344 156.984375 251.953125 158.207031 252.378906 159.484375 C 252.808594 160.757812 253.109375 162.0625 253.277344 163.398438 C 253.449219 164.734375 253.488281 166.070312 253.394531 167.414062 C 253.277344 168.652344 253.035156 169.867188 252.664062 171.058594 C 252.316406 172.214844 251.851562 173.324219 251.269531 174.382812 C 250.074219 176.613281 248.554688 178.597656 246.710938 180.328125 C 244.851562 182.128906 242.792969 183.664062 240.535156 184.933594 C 238.132812 186.304688 235.605469 187.386719 232.953125 188.179688 C 226.703125 190.121094 220.171875 190.832031 213.691406 191.59375 C 207.625 192.300781 201.535156 193.074219 195.675781 194.867188 C 190.085938 196.59375 184.710938 199.230469 180.46875 203.316406 C 176.042969 207.578125 173.164062 213.171875 168.632812 217.332031 C 166.65625 219.25 164.351562 220.621094 161.726562 221.449219 C 160.449219 221.835938 159.144531 221.964844 157.8125 221.835938 C 157.699219 221.832031 157.582031 221.820312 157.46875 221.800781 L 156.996094 221.707031 C 156.65625 221.632812 156.324219 221.535156 156 221.414062 C 155.492188 221.199219 155.03125 220.90625 154.625 220.535156 C 154.421875 220.351562 154.253906 220.140625 154.113281 219.90625 C 153.972656 219.679688 153.847656 219.441406 153.738281 219.199219 C 153.617188 218.882812 153.519531 218.558594 153.449219 218.226562 C 153.386719 217.960938 153.34375 217.691406 153.324219 217.417969 C 153.261719 216.746094 153.261719 216.074219 153.324219 215.398438 C 153.324219 215.253906 153.351562 215.113281 153.371094 214.96875 C 153.371094 214.925781 153.371094 214.773438 153.410156 214.726562 C 153.457031 214.433594 153.515625 214.148438 153.582031 213.851562 C 153.710938 213.265625 153.871094 212.691406 154.066406 212.125 C 154.164062 211.847656 154.269531 211.546875 154.378906 211.300781 C 154.378906 211.273438 154.378906 211.242188 154.378906 211.214844 L 154.417969 211.132812 C 154.480469 210.992188 154.542969 210.839844 154.613281 210.695312 C 155.121094 209.621094 155.707031 208.585938 156.375 207.601562 C 156.707031 207.09375 157.058594 206.597656 157.429688 206.117188 C 157.734375 205.699219 158.003906 205.339844 158.433594 204.824219 C 159.222656 203.851562 160.046875 202.910156 160.882812 201.949219 C 162.554688 200.046875 164.269531 198.179688 165.835938 196.191406 C 167.570312 194.121094 168.988281 191.851562 170.085938 189.382812 C 171.179688 186.914062 171.914062 184.339844 172.289062 181.664062 C 173.160156 176.097656 172.898438 170.457031 172.679688 164.851562 C 172.570312 162.054688 172.472656 159.257812 172.53125 156.460938 C 172.566406 155.085938 172.628906 153.714844 172.761719 152.34375 C 172.878906 151.066406 173.070312 149.800781 173.335938 148.546875 C 173.816406 146.027344 174.644531 143.628906 175.816406 141.347656 C 175.90625 141.183594 175.960938 141.011719 175.984375 140.832031 C 176.003906 140.648438 175.992188 140.46875 175.945312 140.292969 C 175.898438 140.113281 175.824219 139.949219 175.714844 139.804688 C 175.605469 139.65625 175.472656 139.53125 175.316406 139.433594 C 175.15625 139.34375 174.984375 139.285156 174.804688 139.261719 C 174.621094 139.238281 174.441406 139.25 174.261719 139.296875 C 174.085938 139.34375 173.921875 139.421875 173.773438 139.535156 C 173.628906 139.644531 173.507812 139.777344 173.410156 139.9375 C 170.710938 145.082031 169.878906 150.871094 169.761719 156.628906 C 169.648438 162.382812 170.199219 168.140625 170.128906 173.894531 C 170.144531 176.671875 169.914062 179.429688 169.445312 182.164062 C 168.960938 184.84375 168.089844 187.386719 166.832031 189.796875 C 164.402344 194.34375 160.75 197.828125 157.371094 201.804688 C 153.992188 205.78125 150.988281 210.179688 150.527344 215.507812 C 150.269531 218.566406 151.171875 221.878906 153.980469 223.496094 C 156.652344 225.035156 160.140625 224.878906 162.988281 223.945312 C 169.101562 221.949219 173.152344 216.808594 176.871094 211.859375 C 178.695312 209.269531 180.75 206.875 183.035156 204.675781 C 185.191406 202.761719 187.570312 201.179688 190.171875 199.9375 C 195.351562 197.390625 201.316406 196.054688 207.113281 195.183594 C 213.8125 194.183594 220.589844 193.742188 227.257812 192.433594 C 233.28125 191.25 239.222656 189.304688 244.320312 185.804688 C 248.925781 182.667969 252.773438 178.460938 254.828125 173.246094 C 257.003906 167.722656 256.511719 161.59375 254.0625 156.257812 C 252.765625 153.539062 251.042969 151.125 248.882812 149.023438 C 246.726562 146.917969 244.269531 145.257812 241.511719 144.035156 C 238.621094 142.734375 235.605469 141.890625 232.460938 141.5 C 229.324219 141.097656 226.21875 141.3125 223.078125 141.535156 C 221.433594 141.679688 219.785156 141.710938 218.132812 141.632812 C 217.390625 141.59375 216.65625 141.492188 215.929688 141.328125 C 215.578125 141.253906 215.234375 141.160156 214.886719 141.050781 L 214.3125 140.851562 L 213.925781 140.695312 C 211.863281 139.707031 210.078125 138.34375 208.578125 136.613281 C 210.339844 134.886719 211.992188 133.046875 213.679688 131.3125 C 215.605469 129.199219 217.828125 127.472656 220.355469 126.132812 C 220.511719 126.039062 220.648438 125.917969 220.757812 125.769531 C 220.867188 125.625 220.945312 125.460938 220.992188 125.28125 C 221.039062 125.105469 221.050781 124.925781 221.027344 124.742188 C 221.003906 124.558594 220.945312 124.386719 220.855469 124.226562 C 220.761719 124.070312 220.636719 123.9375 220.488281 123.828125 C 220.34375 123.71875 220.179688 123.640625 220 123.59375 C 219.824219 123.546875 219.644531 123.535156 219.460938 123.558594 C 219.277344 123.582031 219.105469 123.636719 218.945312 123.726562 C 213.9375 126.214844 210.652344 130.796875 206.730469 134.605469 C 205.261719 132.820312 203.625 131.199219 201.820312 129.75 C 199.726562 128.199219 197.382812 127.269531 194.792969 126.960938 C 193.574219 126.777344 192.375 126.863281 191.191406 127.214844 C 190.011719 127.566406 188.960938 128.15625 188.042969 128.976562 C 187.589844 129.421875 187.203125 129.917969 186.890625 130.46875 C 186.574219 131.019531 186.335938 131.601562 186.183594 132.21875 C 186.027344 132.832031 185.957031 133.457031 185.972656 134.09375 C 185.992188 134.726562 186.09375 135.347656 186.28125 135.953125 Z M 190.082031 137.324219 C 189.964844 137.183594 190.058594 137.300781 190.082031 137.324219 Z M 189.019531 132.332031 Z M 188.773438 133.265625 C 188.773438 133.34375 188.773438 133.351562 188.773438 133.265625 Z M 188.773438 133.410156 C 188.777344 133.355469 188.777344 133.304688 188.773438 133.253906 C 188.824219 133.011719 188.878906 132.777344 188.953125 132.539062 C 188.953125 132.472656 189.003906 132.402344 189.027344 132.328125 C 189.050781 132.253906 189.148438 132.078125 189.21875 131.953125 L 189.417969 131.617188 L 189.550781 131.433594 C 189.714844 131.230469 189.890625 131.035156 190.085938 130.859375 C 190.148438 130.800781 190.21875 130.738281 190.292969 130.679688 L 190.453125 130.558594 C 190.683594 130.40625 190.921875 130.273438 191.167969 130.152344 C 191.21875 130.152344 191.324219 130.082031 191.351562 130.070312 L 191.601562 129.984375 C 191.867188 129.898438 192.136719 129.828125 192.410156 129.769531 L 192.675781 129.726562 L 192.882812 129.726562 C 193.175781 129.699219 193.464844 129.6875 193.757812 129.695312 C 194.011719 129.695312 194.265625 129.695312 194.519531 129.738281 L 194.75 129.738281 L 195.179688 129.8125 C 195.75 129.921875 196.304688 130.070312 196.855469 130.253906 C 197.097656 130.335938 197.328125 130.421875 197.5625 130.519531 L 197.84375 130.640625 L 198.277344 130.84375 C 198.800781 131.105469 199.304688 131.398438 199.796875 131.722656 C 200.003906 131.859375 200.203125 132.003906 200.40625 132.152344 L 200.628906 132.332031 L 200.976562 132.632812 C 201.476562 133.082031 201.960938 133.554688 202.425781 134.042969 C 203.1875 134.824219 203.917969 135.640625 204.640625 136.460938 C 202.917969 137.953125 200.972656 139.066406 198.8125 139.792969 C 197.527344 140.195312 196.210938 140.339844 194.867188 140.222656 L 194.714844 140.222656 L 194.328125 140.148438 C 194.023438 140.082031 193.726562 139.992188 193.4375 139.882812 L 193.21875 139.804688 L 192.917969 139.664062 C 192.636719 139.527344 192.363281 139.371094 192.101562 139.203125 C 191.886719 139.074219 191.679688 138.929688 191.480469 138.777344 C 191.4375 138.738281 191.28125 138.613281 191.253906 138.589844 C 191.132812 138.484375 191.019531 138.382812 190.910156 138.273438 C 190.707031 138.089844 190.515625 137.898438 190.332031 137.695312 C 190.234375 137.585938 190.144531 137.472656 190.050781 137.355469 L 189.894531 137.148438 C 189.753906 136.929688 189.609375 136.710938 189.480469 136.488281 C 189.40625 136.355469 189.335938 136.222656 189.269531 136.089844 C 189.269531 136.046875 189.183594 135.894531 189.152344 135.84375 C 188.964844 135.378906 188.832031 134.898438 188.75 134.40625 C 188.75 134.359375 188.75 134.277344 188.75 134.226562 C 188.75 134.175781 188.75 133.984375 188.75 133.863281 C 188.75 133.742188 188.757812 133.546875 188.761719 133.410156 Z M 188.773438 133.410156 " fill-opacity="1" fill-rule="nonzero"/><path fill="#ffffff" d="M 238.714844 248.085938 C 239.078125 248.085938 239.441406 248.085938 239.796875 248.085938 C 240.09375 248.078125 240.390625 248.097656 240.683594 248.144531 L 240.769531 248.144531 L 240.960938 248.179688 C 241.152344 248.21875 241.335938 248.265625 241.535156 248.316406 C 241.6875 248.355469 241.835938 248.402344 241.980469 248.460938 L 242.039062 248.460938 L 242.152344 248.511719 C 242.285156 248.574219 242.417969 248.644531 242.542969 248.726562 L 242.726562 248.847656 C 242.839844 248.941406 242.945312 249.039062 243.042969 249.144531 L 243.160156 249.273438 C 243.234375 249.386719 243.308594 249.496094 243.371094 249.617188 C 243.4375 249.738281 243.441406 249.742188 243.46875 249.808594 C 243.472656 249.820312 243.472656 249.832031 243.46875 249.847656 C 243.523438 250.023438 243.609375 250.183594 243.722656 250.328125 C 243.839844 250.472656 243.976562 250.589844 244.136719 250.679688 C 244.300781 250.769531 244.472656 250.828125 244.652344 250.851562 C 244.835938 250.875 245.019531 250.867188 245.195312 250.820312 C 245.375 250.769531 245.539062 250.6875 245.683594 250.570312 C 245.828125 250.457031 245.945312 250.316406 246.039062 250.15625 C 246.128906 249.996094 246.1875 249.820312 246.207031 249.636719 C 246.230469 249.453125 246.21875 249.273438 246.167969 249.09375 C 245.890625 248.316406 245.457031 247.632812 244.867188 247.050781 C 244.28125 246.464844 243.597656 246.035156 242.820312 245.753906 C 241.382812 245.253906 239.90625 245.089844 238.394531 245.253906 C 236.855469 245.445312 235.339844 245.742188 233.847656 246.152344 C 233.484375 246.234375 233.121094 246.3125 232.753906 246.375 C 232.574219 246.410156 232.390625 246.445312 232.207031 246.46875 L 231.988281 246.503906 L 231.804688 246.503906 C 231.0625 246.617188 230.320312 246.660156 229.570312 246.628906 L 229.335938 246.628906 C 229.167969 246.601562 229.007812 246.5625 228.84375 246.519531 C 228.683594 246.480469 228.527344 246.429688 228.375 246.371094 L 228.285156 246.335938 L 228.21875 246.335938 L 228.089844 246.261719 C 227.945312 246.1875 227.816406 246.09375 227.675781 246.015625 L 227.527344 245.886719 C 227.40625 245.773438 227.296875 245.644531 227.179688 245.53125 L 226.984375 245.226562 C 226.921875 245.117188 226.863281 245 226.808594 244.886719 L 226.808594 244.851562 C 226.722656 244.640625 226.652344 244.425781 226.59375 244.207031 C 226.472656 243.773438 226.386719 243.324219 226.308594 242.882812 C 226.1875 242.015625 225.996094 241.164062 225.730469 240.328125 C 225.175781 238.851562 224.347656 237.550781 223.246094 236.421875 C 222.144531 235.296875 220.863281 234.4375 219.398438 233.847656 C 217.90625 233.199219 216.351562 232.808594 214.730469 232.667969 C 213.109375 232.527344 211.507812 232.648438 209.925781 233.027344 C 206.238281 233.933594 202.984375 236.050781 200.140625 238.542969 C 197.414062 240.949219 195.144531 243.769531 192.738281 246.480469 C 191.558594 247.832031 190.289062 249.105469 188.941406 250.289062 L 188.457031 250.695312 L 188.199219 250.902344 L 188.140625 250.941406 C 187.773438 251.21875 187.390625 251.515625 186.988281 251.742188 C 186.230469 252.238281 185.433594 252.667969 184.601562 253.03125 L 184.558594 253.03125 L 184.480469 253.058594 L 184.144531 253.1875 L 183.402344 253.445312 C 182.925781 253.601562 182.441406 253.734375 181.957031 253.851562 C 180.957031 254.101562 179.945312 254.285156 178.929688 254.429688 C 176.960938 254.699219 175.007812 255.066406 173.070312 255.535156 C 169.832031 256.414062 166.515625 258.199219 164.765625 261.175781 C 164.328125 261.917969 164.011719 262.710938 163.816406 263.550781 C 163.769531 263.730469 163.753906 263.910156 163.777344 264.09375 C 163.800781 264.277344 163.859375 264.449219 163.949219 264.609375 C 164.039062 264.769531 164.160156 264.90625 164.304688 265.019531 C 164.449219 265.132812 164.613281 265.214844 164.789062 265.265625 C 164.96875 265.3125 165.148438 265.328125 165.332031 265.304688 C 165.515625 265.28125 165.6875 265.226562 165.847656 265.132812 C 166.007812 265.042969 166.144531 264.925781 166.261719 264.777344 C 166.375 264.632812 166.457031 264.472656 166.503906 264.292969 C 166.582031 263.964844 166.679688 263.644531 166.796875 263.328125 C 166.796875 263.363281 166.925781 263.035156 166.960938 262.964844 C 167.0625 262.769531 167.171875 262.578125 167.289062 262.390625 C 167.386719 262.234375 167.488281 262.085938 167.59375 261.933594 L 167.777344 261.710938 C 168.03125 261.417969 168.300781 261.140625 168.589844 260.882812 C 168.726562 260.753906 168.871094 260.632812 169.015625 260.511719 L 169.128906 260.425781 L 169.273438 260.316406 C 169.601562 260.085938 169.941406 259.867188 170.285156 259.667969 C 170.632812 259.464844 170.964844 259.292969 171.3125 259.125 L 171.789062 258.914062 L 171.886719 258.867188 L 172.265625 258.722656 C 175.8125 257.394531 179.679688 257.363281 183.3125 256.363281 C 185.179688 255.855469 186.925781 255.066406 188.542969 254.003906 C 190.0625 252.972656 191.464844 251.796875 192.746094 250.480469 C 195.230469 247.976562 197.351562 245.15625 199.832031 242.628906 C 200.464844 241.972656 201.113281 241.339844 201.792969 240.730469 C 202.097656 240.453125 202.410156 240.1875 202.71875 239.925781 L 203.21875 239.511719 L 203.472656 239.308594 L 203.535156 239.257812 L 203.601562 239.214844 C 205.003906 238.136719 206.511719 237.230469 208.125 236.5 L 208.28125 236.4375 L 208.492188 236.351562 L 209.066406 236.132812 C 209.488281 235.980469 209.914062 235.855469 210.347656 235.738281 C 210.777344 235.625 211.09375 235.554688 211.496094 235.488281 C 211.578125 235.488281 212.128906 235.347656 211.746094 235.445312 C 211.949219 235.40625 212.15625 235.382812 212.367188 235.382812 C 213.070312 235.328125 213.769531 235.328125 214.472656 235.382812 L 214.996094 235.433594 L 215.042969 235.433594 L 215.25 235.464844 C 215.636719 235.53125 216.011719 235.609375 216.402344 235.707031 C 216.792969 235.804688 217.074219 235.890625 217.402344 236.003906 L 217.898438 236.183594 L 218.085938 236.257812 L 218.121094 236.257812 L 218.183594 236.285156 C 218.828125 236.578125 219.441406 236.917969 220.027344 237.304688 L 220.347656 237.542969 L 220.632812 237.761719 C 220.90625 238.003906 221.179688 238.253906 221.433594 238.519531 C 221.546875 238.640625 221.65625 238.765625 221.765625 238.894531 L 221.890625 239.042969 C 222.082031 239.3125 222.273438 239.585938 222.4375 239.871094 C 222.585938 240.136719 222.722656 240.40625 222.84375 240.683594 C 222.84375 240.765625 222.945312 240.949219 222.96875 241.007812 C 223.03125 241.203125 223.09375 241.398438 223.148438 241.582031 C 223.382812 242.460938 223.476562 243.371094 223.671875 244.257812 C 223.816406 245.148438 224.140625 245.96875 224.644531 246.71875 C 225.144531 247.464844 225.78125 248.078125 226.546875 248.550781 C 229.347656 250.125 232.878906 249.371094 235.820312 248.585938 C 236.503906 248.371094 237.199219 248.226562 237.910156 248.148438 C 237.511719 248.179688 238.066406 248.148438 238.15625 248.148438 Z M 188.199219 250.738281 Z M 226.691406 244.671875 C 226.664062 244.621094 226.691406 244.636719 226.691406 244.671875 Z M 228.210938 246.265625 L 228.339844 246.320312 C 228.339844 246.320312 228.265625 246.296875 228.210938 246.265625 Z M 229.402344 246.601562 L 229.519531 246.601562 C 229.480469 246.617188 229.445312 246.628906 229.402344 246.628906 Z M 229.402344 246.601562 " fill-opacity="1" fill-rule="nonzero"/><path fill="#ffffff" d="M 106.566406 199.910156 L 106.519531 199.96875 C 106.464844 200.007812 106.398438 200.167969 106.566406 199.910156 Z M 106.566406 199.910156 " fill-opacity="1" fill-rule="nonzero"/><path fill="#ffffff" d="M 107.507812 194.332031 C 107.273438 194.597656 107.449219 194.40625 107.507812 194.332031 Z M 107.507812 194.332031 " fill-opacity="1" fill-rule="nonzero"/><path fill="#ffffff" d="M 103.75 205.503906 C 103.832031 205.1875 103.761719 205.394531 103.75 205.503906 Z M 103.75 205.503906 " fill-opacity="1" fill-rule="nonzero"/><path fill="#ffffff" d="M 202.703125 47.632812 L 202.742188 47.539062 Z M 202.703125 47.632812 " fill-opacity="1" fill-rule="nonzero"/><path fill="#ffffff" d="M 210.035156 94.101562 C 214.207031 100.894531 218.632812 107.523438 222.789062 114.328125 C 223.382812 115.300781 223.972656 116.277344 224.5625 117.257812 C 224.625 117.359375 224.699219 117.453125 224.789062 117.539062 C 224.875 117.621094 224.972656 117.695312 225.078125 117.753906 C 225.179688 117.8125 225.292969 117.855469 225.410156 117.886719 C 225.527344 117.917969 225.644531 117.933594 225.765625 117.933594 C 225.886719 117.933594 226.003906 117.917969 226.121094 117.886719 C 226.238281 117.855469 226.351562 117.8125 226.457031 117.753906 C 226.5625 117.695312 226.65625 117.621094 226.742188 117.539062 C 226.832031 117.453125 226.90625 117.359375 226.96875 117.257812 C 231.082031 111.242188 234.8125 104.992188 238.15625 98.519531 C 239.761719 95.507812 241.328125 92.472656 242.929688 89.464844 C 244.585938 86.34375 246.210938 83.242188 247.535156 79.972656 C 250.25 73.390625 251.90625 66.554688 252.507812 59.460938 C 252.816406 56.085938 252.816406 52.710938 252.507812 49.335938 C 252.265625 46.476562 251.542969 43.75 250.332031 41.148438 C 249.097656 38.644531 247.332031 36.601562 245.03125 35.019531 C 242.324219 33.21875 239.351562 32.164062 236.113281 31.855469 C 234.5 31.675781 232.894531 31.734375 231.296875 32.035156 C 229.699219 32.335938 228.183594 32.867188 226.746094 33.621094 C 225.316406 34.429688 224 35.386719 222.796875 36.5 C 221.671875 37.503906 220.640625 38.597656 219.703125 39.78125 C 215.796875 44.730469 213.574219 51.003906 214.347656 57.339844 C 215.09375 63.40625 218.3125 69.734375 223.964844 72.578125 C 226.617188 73.910156 229.894531 74.589844 232.742188 73.453125 C 236.011719 72.144531 237.742188 69.089844 238.714844 65.859375 C 239.6875 62.628906 240.039062 58.824219 238.882812 55.5 C 238.359375 53.9375 237.523438 52.566406 236.375 51.386719 C 235.230469 50.203125 233.882812 49.328125 232.339844 48.757812 C 230.863281 48.242188 229.363281 48.144531 227.832031 48.460938 C 227.652344 48.507812 227.488281 48.59375 227.34375 48.707031 C 227.195312 48.820312 227.078125 48.960938 226.988281 49.121094 C 226.894531 49.285156 226.839844 49.457031 226.816406 49.640625 C 226.792969 49.824219 226.808594 50.007812 226.859375 50.1875 C 226.914062 50.363281 226.996094 50.523438 227.113281 50.667969 C 227.226562 50.8125 227.363281 50.933594 227.527344 51.023438 C 227.6875 51.113281 227.859375 51.171875 228.042969 51.195312 C 228.226562 51.222656 228.40625 51.210938 228.585938 51.164062 C 228.644531 51.164062 228.949219 51.113281 228.929688 51.109375 L 229.339844 51.109375 C 229.640625 51.105469 229.941406 51.117188 230.242188 51.148438 L 230.582031 51.207031 C 230.75 51.238281 230.910156 51.273438 231.074219 51.320312 L 231.488281 51.453125 L 231.855469 51.589844 C 232.441406 51.851562 232.992188 52.175781 233.507812 52.558594 L 233.777344 52.777344 L 234.113281 53.074219 C 234.378906 53.328125 234.628906 53.59375 234.867188 53.875 L 235.007812 54.058594 L 235.042969 54.101562 C 235.128906 54.226562 235.214844 54.347656 235.296875 54.476562 C 235.5 54.777344 235.683594 55.089844 235.84375 55.417969 C 235.980469 55.671875 236.09375 55.9375 236.183594 56.214844 C 236.320312 56.609375 236.441406 57.011719 236.539062 57.421875 C 236.71875 58.121094 236.816406 58.835938 236.828125 59.558594 C 236.855469 60.363281 236.824219 61.164062 236.730469 61.964844 C 236.730469 62.039062 236.730469 62.113281 236.730469 62.1875 C 236.730469 62.207031 236.730469 62.230469 236.730469 62.25 C 236.695312 62.453125 236.667969 62.648438 236.625 62.828125 C 236.558594 63.222656 236.472656 63.613281 236.375 64.011719 C 236.1875 64.773438 235.960938 65.519531 235.6875 66.25 C 235.625 66.429688 235.554688 66.609375 235.488281 66.78125 L 235.488281 66.816406 L 235.324219 67.050781 C 235.152344 67.414062 234.960938 67.765625 234.75 68.109375 C 234.4375 68.707031 234.03125 69.238281 233.535156 69.699219 C 233.402344 69.824219 233.269531 69.945312 233.128906 70.066406 L 233.09375 70.066406 L 232.929688 70.183594 C 232.644531 70.382812 232.34375 70.558594 232.027344 70.707031 L 231.902344 70.769531 L 231.859375 70.769531 L 231.40625 70.925781 C 231.085938 71.015625 230.757812 71.089844 230.429688 71.144531 L 230.238281 71.144531 C 230.078125 71.144531 229.914062 71.144531 229.75 71.144531 C 229.402344 71.152344 229.054688 71.140625 228.707031 71.109375 L 228.425781 71.074219 L 228.027344 71 C 227.695312 70.9375 227.367188 70.851562 227.042969 70.757812 C 226.722656 70.664062 226.394531 70.539062 226.070312 70.417969 L 226 70.503906 L 225.839844 70.429688 C 225.679688 70.359375 225.523438 70.285156 225.367188 70.207031 C 224.75 69.894531 224.15625 69.535156 223.589844 69.132812 L 223.300781 68.914062 L 222.960938 68.640625 C 222.699219 68.414062 222.445312 68.179688 222.203125 67.9375 C 221.699219 67.433594 221.230469 66.90625 220.785156 66.347656 L 220.753906 66.304688 L 220.589844 66.085938 L 220.28125 65.652344 C 220.078125 65.359375 219.890625 65.078125 219.703125 64.75 C 219.332031 64.140625 218.996094 63.511719 218.699219 62.859375 L 218.507812 62.433594 L 218.386719 62.148438 C 218.25 61.796875 218.121094 61.4375 218 61.078125 C 217.773438 60.394531 217.582031 59.707031 217.425781 59.003906 C 217.355469 58.675781 217.292969 58.34375 217.234375 58.015625 C 217.203125 57.835938 217.179688 57.65625 217.148438 57.480469 C 217.148438 57.363281 217.148438 57.242188 217.101562 57.128906 C 217.027344 56.414062 216.988281 55.695312 216.984375 54.976562 C 216.976562 54.257812 217.011719 53.539062 217.082031 52.824219 L 217.132812 52.355469 L 217.132812 52.316406 L 217.167969 52.0625 C 217.222656 51.699219 217.289062 51.34375 217.363281 50.992188 C 217.511719 50.277344 217.695312 49.578125 217.910156 48.886719 C 218.011719 48.5625 218.121094 48.242188 218.238281 47.925781 C 218.300781 47.753906 218.363281 47.585938 218.433594 47.414062 C 218.460938 47.332031 218.496094 47.246094 218.53125 47.164062 L 218.53125 47.054688 C 219.105469 45.71875 219.792969 44.445312 220.601562 43.234375 C 220.785156 42.953125 220.984375 42.660156 221.179688 42.394531 C 221.28125 42.242188 221.390625 42.101562 221.5 41.957031 L 221.5625 41.871094 L 221.75 41.644531 C 222.203125 41.070312 222.679688 40.527344 223.1875 40 C 223.695312 39.46875 224.183594 38.996094 224.707031 38.527344 C 224.976562 38.285156 225.28125 38.046875 225.535156 37.8125 L 225.960938 37.472656 L 226.035156 37.414062 L 226.21875 37.277344 C 226.816406 36.828125 227.441406 36.425781 228.097656 36.066406 C 228.40625 35.898438 228.722656 35.742188 229.046875 35.601562 C 229.105469 35.601562 229.292969 35.503906 229.328125 35.488281 L 229.902344 35.28125 C 230.597656 35.050781 231.308594 34.875 232.027344 34.75 L 232.394531 34.699219 C 232.558594 34.675781 232.71875 34.65625 232.878906 34.644531 C 233.242188 34.613281 233.609375 34.59375 233.980469 34.589844 C 236.871094 34.535156 239.597656 35.1875 242.152344 36.546875 C 242.730469 36.855469 243.285156 37.203125 243.820312 37.582031 L 244.144531 37.824219 L 244.320312 37.972656 C 244.582031 38.1875 244.832031 38.40625 245.066406 38.628906 C 245.492188 39.035156 245.890625 39.46875 246.261719 39.929688 C 246.308594 39.988281 246.355469 40.039062 246.394531 40.097656 C 246.46875 40.207031 246.554688 40.308594 246.628906 40.414062 C 246.8125 40.679688 246.992188 40.949219 247.160156 41.21875 C 247.480469 41.738281 247.769531 42.273438 248.027344 42.824219 C 248.09375 42.964844 248.148438 43.105469 248.21875 43.246094 C 248.242188 43.289062 248.257812 43.335938 248.277344 43.382812 C 248.402344 43.6875 248.519531 44 248.621094 44.308594 C 249.03125 45.53125 249.339844 46.773438 249.542969 48.046875 C 249.542969 48.191406 249.582031 48.332031 249.605469 48.476562 C 249.605469 48.527344 249.605469 48.582031 249.605469 48.632812 C 249.609375 48.664062 249.609375 48.695312 249.605469 48.726562 C 249.644531 49.058594 249.6875 49.390625 249.714844 49.730469 C 249.785156 50.472656 249.824219 51.230469 249.851562 51.976562 C 249.917969 53.644531 249.917969 55.316406 249.851562 56.980469 C 249.722656 60.246094 249.328125 63.480469 248.667969 66.683594 C 247.996094 69.960938 247.09375 73.175781 245.957031 76.324219 C 244.855469 79.390625 243.535156 82.359375 242.003906 85.234375 C 240.511719 88.054688 239.003906 90.875 237.519531 93.699219 C 234.347656 99.753906 231.113281 105.789062 227.421875 111.542969 C 226.894531 112.371094 226.347656 113.199219 225.792969 114.019531 C 221.945312 107.6875 217.898438 101.488281 213.953125 95.21875 C 212.171875 92.375 210.421875 89.511719 208.773438 86.585938 C 208.007812 85.203125 207.265625 83.800781 206.566406 82.378906 C 206.226562 81.695312 205.898438 81.003906 205.582031 80.304688 L 205.164062 79.375 L 204.941406 78.855469 L 204.894531 78.753906 C 204.894531 78.71875 204.785156 78.488281 204.773438 78.457031 C 203.632812 75.6875 202.71875 72.84375 202.027344 69.929688 C 201.671875 68.433594 201.378906 66.914062 201.152344 65.386719 L 201.085938 64.902344 C 201.085938 64.902344 201.042969 64.59375 201.035156 64.523438 C 200.980469 64.105469 200.933594 63.683594 200.890625 63.265625 C 200.808594 62.453125 200.738281 61.636719 200.695312 60.8125 C 200.574219 59.140625 200.574219 57.46875 200.695312 55.796875 C 200.695312 55.40625 200.761719 55.023438 200.808594 54.648438 C 200.808594 54.574219 200.859375 54.296875 200.808594 54.589844 L 200.84375 54.34375 C 200.878906 54.101562 200.917969 53.859375 200.964844 53.613281 C 201.109375 52.800781 201.285156 52 201.503906 51.207031 C 201.722656 50.410156 201.972656 49.621094 202.253906 48.851562 C 202.390625 48.460938 202.546875 48.082031 202.703125 47.699219 C 202.71875 47.671875 202.730469 47.640625 202.742188 47.609375 C 202.773438 47.550781 202.792969 47.488281 202.824219 47.429688 C 202.914062 47.21875 203.007812 47.015625 203.105469 46.808594 C 203.808594 45.308594 204.628906 43.871094 205.5625 42.503906 C 205.800781 42.164062 206.035156 41.824219 206.28125 41.488281 L 206.433594 41.292969 L 206.558594 41.128906 C 206.605469 41.070312 206.675781 40.976562 206.675781 40.984375 L 206.902344 40.695312 C 207.429688 40.050781 207.976562 39.429688 208.542969 38.832031 C 209.121094 38.253906 209.695312 37.679688 210.328125 37.105469 C 210.632812 36.828125 210.949219 36.5625 211.265625 36.296875 L 211.703125 35.945312 L 211.871094 35.816406 L 212.054688 35.671875 C 213.378906 34.675781 214.773438 33.800781 216.246094 33.046875 C 216.609375 32.863281 216.984375 32.679688 217.355469 32.503906 L 217.933594 32.257812 L 218 32.257812 L 218.285156 32.140625 C 219.046875 31.832031 219.832031 31.566406 220.621094 31.324219 C 221.410156 31.082031 222.21875 30.894531 223.03125 30.75 C 223.210938 30.699219 223.371094 30.617188 223.519531 30.503906 C 223.664062 30.386719 223.785156 30.25 223.875 30.085938 C 223.964844 29.925781 224.023438 29.753906 224.046875 29.566406 C 224.066406 29.382812 224.054688 29.203125 224.003906 29.023438 C 223.953125 28.847656 223.867188 28.683594 223.753906 28.539062 C 223.636719 28.394531 223.5 28.277344 223.335938 28.1875 C 223.175781 28.097656 223.003906 28.039062 222.820312 28.015625 C 222.636719 27.992188 222.457031 28.003906 222.277344 28.050781 C 218.875 28.777344 215.695312 30.050781 212.730469 31.871094 C 209.769531 33.691406 207.195312 35.957031 205.011719 38.664062 C 200.589844 44.058594 197.832031 50.832031 197.804688 57.851562 C 197.804688 64.398438 198.9375 70.746094 201.199219 76.886719 C 203.445312 82.898438 206.640625 88.59375 210.035156 94.101562 Z M 234.976562 54.007812 Z M 234.976562 54.007812 " fill-opacity="1" fill-rule="nonzero"/><g fill="#ffffff" fill-opacity="1"><g transform="translate(6.059675, 328.467226)"><g><path d="M 29.292969 -2.164062 L 29.292969 -17.59375 L 22.164062 -17.59375 L 22.164062 -7.027344 C 21.527344 -6.929688 20.839844 -6.832031 20.199219 -6.832031 C 6.636719 -6.832031 5.996094 -27.816406 20.199219 -28.308594 C 23.933594 -28.40625 26.195312 -27.621094 27.570312 -27.03125 L 28.40625 -34.15625 C 27.769531 -34.355469 24.378906 -35.582031 20.199219 -35.4375 C -4.175781 -34.550781 -3 0.195312 20.199219 0.195312 C 23.542969 0.195312 26.589844 -0.640625 29.292969 -2.164062 Z M 29.292969 -2.164062 "/></g></g></g><g fill="#ffffff" fill-opacity="1"><g transform="translate(39.134552, 328.467226)"><g><path d="M 3.933594 -35.140625 L 3.933594 0 L 22.117188 0 L 22.117188 -7.027344 L 10.960938 -7.027344 L 10.960938 -35.140625 Z M 3.933594 -35.140625 "/></g></g></g><g fill="#ffffff" fill-opacity="1"><g transform="translate(63.363244, 328.467226)"><g><path d="M 20.839844 0.492188 C 45.019531 0.492188 45.019531 -35.730469 20.839844 -35.730469 C -3.34375 -35.730469 -3.34375 0.492188 20.839844 0.492188 Z M 20.839844 -6.78125 C 6.78125 -6.78125 6.78125 -28.507812 20.839844 -28.507812 C 34.894531 -28.507812 34.894531 -6.78125 20.839844 -6.78125 Z M 20.839844 -6.78125 "/></g></g></g><g fill="#ffffff" fill-opacity="1"><g transform="translate(104.989437, 328.467226)"><g><path d="M 3.933594 0 L 17.839844 0 C 23.542969 0 28.210938 -4.667969 28.210938 -10.566406 C 28.210938 -13.320312 26.882812 -16.023438 24.574219 -17.59375 C 26.785156 -19.117188 27.71875 -21.871094 27.816406 -24.523438 C 27.964844 -30.71875 24.082031 -35.191406 17.839844 -35.191406 L 3.933594 -35.191406 Z M 11.007812 -28.160156 L 17.25 -28.160156 C 19.265625 -28.160156 20.496094 -26.589844 20.496094 -24.625 C 20.496094 -22.707031 19.265625 -21.085938 17.25 -21.085938 L 11.007812 -21.085938 Z M 11.007812 -14.054688 L 17.25 -14.054688 C 19.265625 -14.054688 20.789062 -12.53125 20.789062 -10.566406 C 20.789062 -8.601562 19.265625 -7.027344 17.25 -7.027344 L 11.007812 -7.027344 Z M 11.007812 -14.054688 "/></g></g></g><g fill="#ffffff" fill-opacity="1"><g transform="translate(135.508745, 328.467226)"><g><path d="M 22.117188 0 L 22.117188 -7.027344 L 10.960938 -7.027344 L 10.960938 -14.054688 L 20.199219 -14.054688 L 20.199219 -21.085938 L 10.960938 -21.085938 L 10.960938 -28.113281 L 21.527344 -28.113281 L 21.527344 -35.140625 L 3.933594 -35.140625 L 3.933594 0 Z M 22.117188 0 "/></g></g></g><g fill="#ffffff" fill-opacity="1"><g transform="translate(160.278058, 328.467226)"><g/></g></g><g fill="#ffffff" fill-opacity="1"><g transform="translate(174.235357, 328.467226)"><g><path d="M 2.308594 -2.261719 C 7.078125 0.195312 11.453125 0.441406 13.417969 0.292969 C 20.003906 -0.0507812 24.035156 -4.523438 24.035156 -10.371094 C 24.035156 -15.972656 19.316406 -19.117188 13.859375 -21.132812 C 11.84375 -21.820312 10.125 -22.707031 9.929688 -24.671875 C 9.78125 -26.636719 10.910156 -28.457031 13.417969 -28.605469 C 14.5 -28.652344 16.710938 -28.703125 20.59375 -27.128906 L 21.476562 -33.914062 C 16.957031 -35.484375 14.546875 -35.484375 12.730469 -35.386719 C 6.878906 -35.09375 2.800781 -30.570312 2.800781 -24.671875 C 2.800781 -18.773438 7.714844 -15.972656 13.222656 -13.957031 C 15.1875 -13.269531 16.710938 -12.386719 16.859375 -10.371094 C 17.054688 -8.453125 15.285156 -6.980469 13.222656 -6.832031 C 11.597656 -6.683594 7.226562 -6.78125 3.195312 -9.632812 Z M 2.308594 -2.261719 "/></g></g></g><g fill="#ffffff" fill-opacity="1"><g transform="translate(200.233291, 328.467226)"><g><path d="M 10.960938 0 L 10.960938 -13.417969 L 17.742188 -13.417969 C 31.355469 -13.417969 31.40625 -35.09375 17.742188 -35.09375 L 3.933594 -35.09375 L 3.933594 0 Z M 10.960938 -20.25 L 10.960938 -28.113281 L 17.152344 -28.113281 C 21.871094 -28.113281 21.871094 -20.25 17.152344 -20.25 Z M 10.960938 -20.25 "/></g></g></g><g fill="#ffffff" fill-opacity="1"><g transform="translate(229.86799, 328.467226)"><g><path d="M 10.960938 0 L 10.960938 -35.140625 L 3.933594 -35.140625 L 3.933594 0 Z M 10.960938 0 "/></g></g></g><g fill="#ffffff" fill-opacity="1"><g transform="translate(244.808204, 328.467226)"><g><path d="M 10.960938 -19.117188 L 28.75 0.738281 L 30.621094 0.738281 L 30.621094 -35.09375 L 23.542969 -35.09375 L 23.542969 -15.234375 L 5.800781 -35.878906 L 3.933594 -35.878906 L 3.933594 0 L 10.960938 0 Z M 10.960938 -19.117188 "/></g></g></g><g fill="#ffffff" fill-opacity="1"><g transform="translate(279.406594, 328.467226)"><g><path d="M 10.960938 -19.117188 L 28.75 0.738281 L 30.621094 0.738281 L 30.621094 -35.09375 L 23.542969 -35.09375 L 23.542969 -15.234375 L 5.800781 -35.878906 L 3.933594 -35.878906 L 3.933594 0 L 10.960938 0 Z M 10.960938 -19.117188 "/></g></g></g><g fill="#ffffff" fill-opacity="1"><g transform="translate(314.004984, 328.467226)"><g><path d="M 22.117188 0 L 22.117188 -7.027344 L 10.960938 -7.027344 L 10.960938 -14.054688 L 20.199219 -14.054688 L 20.199219 -21.085938 L 10.960938 -21.085938 L 10.960938 -28.113281 L 21.527344 -28.113281 L 21.527344 -35.140625 L 3.933594 -35.140625 L 3.933594 0 Z M 22.117188 0 "/></g></g></g><g fill="#ffffff" fill-opacity="1"><g transform="translate(338.774297, 328.467226)"><g><path d="M 21.429688 0 L 29.390625 0 L 21.230469 -14.5 C 31.554688 -17.496094 30.324219 -35.140625 17.792969 -35.140625 L 3.933594 -35.140625 L 3.933594 0 L 10.960938 0 L 10.960938 -13.417969 L 14.351562 -13.417969 Z M 10.960938 -20.25 L 10.960938 -28.113281 L 17.152344 -28.113281 C 21.921875 -28.113281 21.921875 -20.25 17.152344 -20.25 Z M 10.960938 -20.25 "/></g></g></g></svg>