<svg xmlns="http://www.w3.org/2000/svg" xmlns:xlink="http://www.w3.org/1999/xlink" width="230" zoomAndPan="magnify" viewBox="0 0 172.5 71.249999" height="95" preserveAspectRatio="xMidYMid meet" version="1.0"><defs><clipPath id="70750866ca"><path d="M 122.148438 61.253906 L 131.6875 61.253906 L 131.6875 70.507812 L 122.148438 70.507812 Z M 122.148438 61.253906 " clip-rule="nonzero"/></clipPath><clipPath id="3f639313ed"><path d="M 162.273438 0 L 171.308594 0 L 171.308594 14.488281 L 162.273438 14.488281 Z M 162.273438 0 " clip-rule="nonzero"/></clipPath><clipPath id="cde58d3f99"><path d="M 0.652344 6 L 8 6 L 8 10 L 0.652344 10 Z M 0.652344 6 " clip-rule="nonzero"/></clipPath></defs><path fill="#bebdbb" d="M 47.792969 67.195312 C 46.570312 67.195312 45.582031 66.203125 45.582031 64.980469 C 45.582031 63.757812 46.570312 62.769531 47.792969 62.769531 C 49.011719 62.769531 50 63.757812 50 64.980469 C 50 66.203125 49.011719 67.195312 47.792969 67.195312 Z M 47.792969 60.4375 C 45.285156 60.4375 43.25 62.46875 43.25 64.980469 C 43.25 67.492188 45.285156 69.527344 47.792969 69.527344 C 50.296875 69.527344 52.332031 67.492188 52.332031 64.980469 C 52.332031 62.46875 50.296875 60.4375 47.792969 60.4375 " fill-opacity="1" fill-rule="nonzero"/><g clip-path="url(#70750866ca)"><path fill="#bebdbb" d="M 127 68.179688 C 125.777344 68.179688 124.789062 67.191406 124.789062 65.96875 C 124.789062 64.746094 125.777344 63.757812 127 63.757812 C 128.222656 63.757812 129.210938 64.746094 129.210938 65.96875 C 129.210938 67.191406 128.222656 68.179688 127 68.179688 Z M 127 61.421875 C 124.492188 61.421875 122.460938 63.457031 122.460938 65.96875 C 122.460938 68.480469 124.492188 70.515625 127 70.515625 C 129.507812 70.515625 131.539062 68.480469 131.539062 65.96875 C 131.539062 63.457031 129.507812 61.421875 127 61.421875 " fill-opacity="1" fill-rule="nonzero"/></g><path fill="#bebdbb" d="M 91.316406 9.011719 C 90.09375 9.011719 89.105469 8.019531 89.105469 6.796875 C 89.105469 5.574219 90.09375 4.582031 91.316406 4.582031 C 92.535156 4.582031 93.523438 5.574219 93.523438 6.796875 C 93.523438 8.019531 92.535156 9.011719 91.316406 9.011719 Z M 91.316406 2.25 C 88.808594 2.25 86.773438 4.285156 86.773438 6.796875 C 86.773438 9.308594 88.808594 11.34375 91.316406 11.34375 C 93.820312 11.34375 95.855469 9.308594 95.855469 6.796875 C 95.855469 4.285156 93.820312 2.25 91.316406 2.25 " fill-opacity="1" fill-rule="nonzero"/><g clip-path="url(#3f639313ed)"><path fill="#bebdbb" d="M 170.839844 6.042969 L 165.433594 0.496094 C 164.800781 -0.15625 163.757812 -0.164062 163.109375 0.46875 C 162.457031 1.105469 162.445312 2.144531 163.082031 2.796875 L 167.335938 7.164062 L 162.976562 11.425781 C 162.324219 12.0625 162.3125 13.105469 162.945312 13.753906 C 163.269531 14.085938 163.695312 14.253906 164.125 14.253906 C 164.539062 14.253906 164.953125 14.097656 165.273438 13.785156 L 170.8125 8.371094 C 171.460938 7.738281 171.472656 6.691406 170.839844 6.042969 " fill-opacity="1" fill-rule="nonzero"/></g><path fill="#bebdbb" d="M 27.40625 17.222656 C 27.488281 17.703125 27.90625 18.042969 28.375 18.042969 C 28.433594 18.042969 28.488281 18.039062 28.546875 18.03125 C 29.082031 17.9375 29.441406 17.425781 29.351562 16.890625 C 29.046875 15.117188 28.53125 13.59375 27.773438 12.230469 C 27.507812 11.753906 26.90625 11.582031 26.429688 11.847656 C 25.953125 12.113281 25.785156 12.714844 26.046875 13.191406 C 26.699219 14.355469 27.140625 15.675781 27.40625 17.222656 " fill-opacity="1" fill-rule="nonzero"/><path fill="#bebdbb" d="M 15.375 5.320312 C 15.195312 5.3125 15.019531 5.304688 14.839844 5.296875 C 13.464844 5.257812 12.097656 5.335938 10.59375 5.539062 C 10.050781 5.613281 9.671875 6.109375 9.746094 6.648438 C 9.8125 7.144531 10.234375 7.507812 10.722656 7.507812 C 10.765625 7.507812 10.808594 7.503906 10.855469 7.496094 C 12.25 7.308594 13.515625 7.234375 14.78125 7.273438 C 14.941406 7.277344 15.101562 7.285156 15.257812 7.296875 C 15.808594 7.324219 16.269531 6.910156 16.300781 6.363281 C 16.332031 5.820312 15.917969 5.355469 15.375 5.320312 " fill-opacity="1" fill-rule="nonzero"/><path fill="#bebdbb" d="M 38.679688 64.21875 C 37.332031 64.441406 35.972656 64.296875 34.679688 63.792969 C 34.171875 63.59375 33.601562 63.84375 33.402344 64.351562 C 33.203125 64.859375 33.453125 65.433594 33.960938 65.632812 C 35.089844 66.074219 36.257812 66.296875 37.4375 66.296875 C 37.957031 66.296875 38.484375 66.253906 39.003906 66.167969 C 39.542969 66.078125 39.90625 65.570312 39.816406 65.03125 C 39.726562 64.492188 39.21875 64.128906 38.679688 64.21875 " fill-opacity="1" fill-rule="nonzero"/><path fill="#bebdbb" d="M 29.515625 59.121094 C 29.292969 58.738281 29.089844 58.335938 28.914062 57.921875 C 28.699219 57.421875 28.117188 57.1875 27.617188 57.402344 C 27.117188 57.621094 26.882812 58.199219 27.101562 58.703125 C 27.308594 59.191406 27.550781 59.667969 27.8125 60.121094 C 28.390625 61.105469 29.074219 62.011719 29.839844 62.808594 C 30.035156 63.011719 30.292969 63.113281 30.550781 63.113281 C 30.796875 63.113281 31.042969 63.019531 31.234375 62.835938 C 31.628906 62.460938 31.640625 61.835938 31.261719 61.441406 C 30.601562 60.753906 30.015625 59.972656 29.515625 59.121094 " fill-opacity="1" fill-rule="nonzero"/><path fill="#bebdbb" d="M 27.886719 53.75 C 27.800781 52.929688 27.757812 52.050781 27.757812 51.070312 C 27.757812 50.523438 27.769531 49.941406 27.796875 49.289062 C 27.820312 48.746094 27.398438 48.285156 26.855469 48.261719 C 26.308594 48.234375 25.847656 48.660156 25.828125 49.207031 C 25.796875 49.882812 25.785156 50.496094 25.785156 51.070312 C 25.785156 52.121094 25.832031 53.066406 25.925781 53.957031 C 25.976562 54.464844 26.40625 54.839844 26.90625 54.839844 C 26.9375 54.839844 26.972656 54.839844 27.007812 54.835938 C 27.550781 54.777344 27.945312 54.292969 27.886719 53.75 " fill-opacity="1" fill-rule="nonzero"/><path fill="#bebdbb" d="M 24.496094 8.480469 C 23.242188 7.523438 21.777344 6.765625 20.140625 6.222656 C 19.621094 6.046875 19.066406 6.332031 18.894531 6.847656 C 18.71875 7.367188 19 7.925781 19.519531 8.097656 C 20.949219 8.574219 22.222656 9.230469 23.304688 10.054688 C 23.484375 10.1875 23.695312 10.253906 23.902344 10.253906 C 24.199219 10.253906 24.496094 10.117188 24.6875 9.863281 C 25.019531 9.429688 24.933594 8.808594 24.496094 8.480469 " fill-opacity="1" fill-rule="nonzero"/><g clip-path="url(#cde58d3f99)"><path fill="#bebdbb" d="M 5.96875 6.457031 C 4.425781 6.84375 2.871094 7.296875 1.496094 7.695312 C 0.972656 7.847656 0.671875 8.394531 0.824219 8.921875 C 0.949219 9.351562 1.34375 9.632812 1.773438 9.632812 C 1.863281 9.632812 1.957031 9.621094 2.046875 9.59375 C 3.402344 9.199219 4.941406 8.75 6.449219 8.375 C 6.976562 8.242188 7.300781 7.703125 7.167969 7.175781 C 7.035156 6.644531 6.5 6.320312 5.96875 6.457031 " fill-opacity="1" fill-rule="nonzero"/></g><path fill="#bebdbb" d="M 26.460938 39.976562 L 26.128906 44.578125 C 26.089844 45.121094 26.5 45.59375 27.042969 45.632812 C 27.066406 45.632812 27.089844 45.636719 27.113281 45.636719 C 27.628906 45.636719 28.0625 45.238281 28.097656 44.71875 L 28.429688 40.121094 C 28.46875 39.578125 28.0625 39.101562 27.515625 39.0625 C 26.972656 39.027344 26.5 39.433594 26.460938 39.976562 " fill-opacity="1" fill-rule="nonzero"/><path fill="#bebdbb" d="M 27.695312 21.636719 C 27.683594 22.894531 27.605469 24.144531 27.496094 25.636719 L 27.457031 26.183594 C 27.417969 26.726562 27.828125 27.199219 28.371094 27.238281 C 28.394531 27.242188 28.421875 27.242188 28.445312 27.242188 C 28.957031 27.242188 29.390625 26.84375 29.425781 26.324219 L 29.464844 25.777344 C 29.578125 24.25 29.652344 22.964844 29.671875 21.664062 C 29.675781 21.117188 29.242188 20.671875 28.695312 20.664062 C 28.164062 20.640625 27.703125 21.09375 27.695312 21.636719 " fill-opacity="1" fill-rule="nonzero"/><path fill="#bebdbb" d="M 28.761719 35.523438 L 29.09375 30.925781 C 29.132812 30.378906 28.726562 29.90625 28.179688 29.867188 C 27.628906 29.828125 27.167969 30.238281 27.125 30.78125 L 26.792969 35.378906 C 26.753906 35.925781 27.164062 36.398438 27.707031 36.4375 C 27.730469 36.4375 27.757812 36.4375 27.78125 36.4375 C 28.292969 36.4375 28.726562 36.042969 28.761719 35.523438 " fill-opacity="1" fill-rule="nonzero"/><path fill="#bebdbb" d="M 67.878906 39.589844 C 67.335938 39.636719 66.933594 40.117188 66.980469 40.660156 C 67.128906 42.351562 67.242188 43.847656 67.328125 45.234375 C 67.359375 45.757812 67.792969 46.160156 68.3125 46.160156 C 68.328125 46.160156 68.351562 46.160156 68.371094 46.160156 C 68.914062 46.125 69.328125 45.65625 69.296875 45.113281 C 69.207031 43.707031 69.097656 42.195312 68.949219 40.488281 C 68.902344 39.945312 68.425781 39.542969 67.878906 39.589844 " fill-opacity="1" fill-rule="nonzero"/><path fill="#bebdbb" d="M 67.632812 36.96875 C 68.175781 36.914062 68.574219 36.429688 68.519531 35.886719 L 68.40625 34.707031 C 68.292969 33.574219 68.183594 32.4375 68.078125 31.300781 C 68.027344 30.757812 67.542969 30.359375 67 30.410156 C 66.460938 30.460938 66.0625 30.945312 66.109375 31.488281 C 66.21875 32.625 66.328125 33.761719 66.441406 34.902344 L 66.554688 36.078125 C 66.605469 36.589844 67.035156 36.972656 67.535156 36.972656 C 67.566406 36.972656 67.601562 36.96875 67.632812 36.96875 " fill-opacity="1" fill-rule="nonzero"/><path fill="#bebdbb" d="M 65.730469 26.882812 C 65.773438 27.398438 66.203125 27.789062 66.710938 27.789062 C 66.738281 27.789062 66.765625 27.789062 66.796875 27.785156 C 67.339844 27.738281 67.742188 27.261719 67.695312 26.71875 L 67.648438 26.183594 C 67.535156 24.859375 67.417969 23.488281 67.367188 22.164062 C 67.347656 21.617188 66.886719 21.195312 66.34375 21.214844 C 65.796875 21.234375 65.375 21.695312 65.394531 22.242188 C 65.449219 23.609375 65.570312 25.003906 65.683594 26.351562 L 65.730469 26.882812 " fill-opacity="1" fill-rule="nonzero"/><path fill="#bebdbb" d="M 66.414062 18.578125 C 66.457031 18.585938 66.5 18.589844 66.542969 18.589844 C 67.03125 18.589844 67.457031 18.226562 67.519531 17.730469 C 67.699219 16.386719 68.007812 15.175781 68.457031 14.050781 C 68.519531 13.894531 68.589844 13.746094 68.65625 13.597656 C 68.890625 13.105469 68.683594 12.515625 68.191406 12.28125 C 67.699219 12.046875 67.109375 12.257812 66.875 12.75 C 66.792969 12.925781 66.714844 13.101562 66.632812 13.296875 C 66.113281 14.597656 65.761719 15.960938 65.5625 17.472656 C 65.492188 18.011719 65.871094 18.507812 66.414062 18.578125 " fill-opacity="1" fill-rule="nonzero"/><path fill="#bebdbb" d="M 83.589844 5.082031 C 81.96875 4.921875 80.332031 4.929688 78.789062 5.097656 C 78.25 5.15625 77.859375 5.644531 77.917969 6.1875 C 77.972656 6.691406 78.398438 7.066406 78.894531 7.066406 C 78.933594 7.066406 78.96875 7.066406 79.003906 7.0625 C 80.414062 6.90625 81.910156 6.902344 83.398438 7.050781 C 83.941406 7.101562 84.421875 6.707031 84.476562 6.164062 C 84.53125 5.621094 84.136719 5.136719 83.589844 5.082031 " fill-opacity="1" fill-rule="nonzero"/><path fill="#bebdbb" d="M 68.511719 48.789062 C 68.503906 48.789062 68.496094 48.789062 68.488281 48.789062 C 67.941406 48.800781 67.511719 49.253906 67.523438 49.800781 C 67.539062 50.484375 67.546875 51.167969 67.546875 51.824219 C 67.480469 52.621094 67.371094 53.410156 67.222656 54.175781 C 67.117188 54.710938 67.464844 55.230469 68 55.332031 C 68.066406 55.34375 68.128906 55.351562 68.191406 55.351562 C 68.65625 55.351562 69.066406 55.023438 69.160156 54.554688 C 69.324219 53.707031 69.445312 52.832031 69.519531 51.949219 C 69.519531 51.921875 69.519531 51.894531 69.519531 51.867188 C 69.519531 51.179688 69.511719 50.46875 69.496094 49.757812 C 69.484375 49.21875 69.046875 48.789062 68.511719 48.789062 " fill-opacity="1" fill-rule="nonzero"/><path fill="#bebdbb" d="M 60.242188 63.855469 C 59.550781 63.980469 58.769531 64.035156 57.71875 64.035156 C 57.214844 64.035156 56.703125 64.023438 56.1875 64.011719 L 55.847656 64.003906 C 55.316406 63.984375 54.851562 64.421875 54.839844 64.96875 C 54.824219 65.511719 55.257812 65.964844 55.800781 65.980469 L 56.140625 65.988281 C 56.671875 66 57.199219 66.011719 57.71875 66.011719 C 58.894531 66.011719 59.78125 65.945312 60.59375 65.796875 C 61.128906 65.699219 61.484375 65.1875 61.386719 64.648438 C 61.289062 64.113281 60.78125 63.757812 60.242188 63.855469 " fill-opacity="1" fill-rule="nonzero"/><path fill="#bebdbb" d="M 74.070312 6.230469 C 72.464844 6.859375 71.042969 7.714844 69.851562 8.773438 C 69.445312 9.136719 69.40625 9.761719 69.769531 10.167969 C 69.964844 10.386719 70.234375 10.5 70.507812 10.5 C 70.738281 10.5 70.972656 10.417969 71.164062 10.25 C 72.179688 9.347656 73.398438 8.613281 74.792969 8.070312 C 75.296875 7.871094 75.550781 7.296875 75.351562 6.789062 C 75.152344 6.28125 74.582031 6.03125 74.070312 6.230469 " fill-opacity="1" fill-rule="nonzero"/><path fill="#bebdbb" d="M 67.21875 57.851562 C 66.722656 57.625 66.136719 57.847656 65.914062 58.34375 C 65.296875 59.707031 64.519531 60.929688 63.605469 61.980469 C 63.25 62.390625 63.292969 63.015625 63.703125 63.375 C 63.890625 63.539062 64.121094 63.617188 64.351562 63.617188 C 64.625 63.617188 64.898438 63.503906 65.09375 63.277344 C 66.132812 62.082031 67.015625 60.699219 67.710938 59.160156 C 67.9375 58.664062 67.714844 58.078125 67.21875 57.851562 " fill-opacity="1" fill-rule="nonzero"/><path fill="#bebdbb" d="M 108.105469 38.476562 L 107.773438 43.074219 C 107.734375 43.617188 108.140625 44.09375 108.683594 44.128906 C 108.710938 44.132812 108.734375 44.132812 108.757812 44.132812 C 109.269531 44.132812 109.703125 43.738281 109.742188 43.214844 L 110.074219 38.617188 C 110.113281 38.074219 109.703125 37.601562 109.160156 37.5625 C 108.609375 37.523438 108.144531 37.929688 108.105469 38.476562 " fill-opacity="1" fill-rule="nonzero"/><path fill="#bebdbb" d="M 109.132812 20.214844 C 109.175781 20.816406 109.195312 21.433594 109.195312 22.109375 C 109.195312 22.878906 109.167969 23.722656 109.109375 24.691406 C 109.078125 25.238281 109.492188 25.707031 110.035156 25.738281 C 110.054688 25.738281 110.074219 25.738281 110.097656 25.738281 C 110.613281 25.738281 111.046875 25.335938 111.082031 24.8125 C 111.140625 23.800781 111.167969 22.917969 111.167969 22.109375 C 111.167969 21.386719 111.148438 20.722656 111.097656 20.074219 C 111.0625 19.53125 110.59375 19.117188 110.042969 19.160156 C 109.503906 19.199219 109.09375 19.671875 109.132812 20.214844 " fill-opacity="1" fill-rule="nonzero"/><path fill="#bebdbb" d="M 117.976562 65.222656 C 116.660156 65.039062 115.386719 64.515625 114.191406 63.667969 C 113.746094 63.351562 113.128906 63.457031 112.816406 63.902344 C 112.5 64.347656 112.605469 64.964844 113.050781 65.28125 C 114.507812 66.3125 116.074219 66.953125 117.707031 67.179688 C 117.753906 67.183594 117.796875 67.1875 117.84375 67.1875 C 118.328125 67.1875 118.75 66.832031 118.816406 66.335938 C 118.894531 65.792969 118.515625 65.296875 117.976562 65.222656 " fill-opacity="1" fill-rule="nonzero"/><path fill="#bebdbb" d="M 110.40625 34.019531 L 110.738281 29.421875 C 110.777344 28.875 110.367188 28.402344 109.824219 28.363281 C 109.277344 28.324219 108.808594 28.734375 108.769531 29.277344 L 108.4375 33.875 C 108.398438 34.421875 108.804688 34.894531 109.351562 34.933594 C 109.375 34.933594 109.398438 34.9375 109.421875 34.9375 C 109.933594 34.9375 110.367188 34.539062 110.40625 34.019531 " fill-opacity="1" fill-rule="nonzero"/><path fill="#bebdbb" d="M 108.222656 53.335938 C 108.769531 53.332031 109.207031 52.886719 109.203125 52.339844 L 109.199219 52.109375 C 109.199219 50.628906 109.304688 49.117188 109.402344 47.816406 C 109.445312 47.273438 109.035156 46.796875 108.492188 46.757812 C 107.949219 46.714844 107.476562 47.125 107.433594 47.667969 C 107.332031 49.007812 107.226562 50.5625 107.226562 52.109375 L 107.230469 52.355469 C 107.230469 52.898438 107.671875 53.335938 108.214844 53.335938 C 108.21875 53.335938 108.21875 53.335938 108.222656 53.335938 " fill-opacity="1" fill-rule="nonzero"/><path fill="#bebdbb" d="M 103.671875 8.078125 C 102.253906 7.367188 100.695312 6.855469 99.039062 6.566406 C 98.507812 6.46875 97.988281 6.832031 97.894531 7.367188 C 97.800781 7.90625 98.160156 8.417969 98.695312 8.511719 C 100.164062 8.769531 101.539062 9.21875 102.789062 9.84375 C 102.929688 9.914062 103.082031 9.949219 103.230469 9.949219 C 103.59375 9.949219 103.941406 9.75 104.113281 9.402344 C 104.355469 8.917969 104.160156 8.324219 103.671875 8.078125 " fill-opacity="1" fill-rule="nonzero"/><path fill="#bebdbb" d="M 108.304688 15.960938 C 108.445312 16.367188 108.828125 16.621094 109.234375 16.621094 C 109.34375 16.621094 109.453125 16.605469 109.5625 16.566406 C 110.074219 16.386719 110.347656 15.820312 110.167969 15.308594 C 110.058594 14.996094 109.9375 14.683594 109.808594 14.382812 C 109.277344 13.152344 108.546875 12.027344 107.632812 11.027344 C 107.265625 10.625 106.640625 10.597656 106.238281 10.96875 C 105.835938 11.335938 105.808594 11.960938 106.179688 12.363281 C 106.941406 13.199219 107.554688 14.140625 107.996094 15.164062 C 108.105469 15.425781 108.210938 15.691406 108.304688 15.960938 " fill-opacity="1" fill-rule="nonzero"/><path fill="#bebdbb" d="M 110.804688 59.800781 C 110.296875 58.855469 109.921875 57.84375 109.65625 56.703125 C 109.535156 56.171875 109.003906 55.839844 108.472656 55.960938 C 107.941406 56.085938 107.613281 56.613281 107.734375 57.144531 C 108.035156 58.445312 108.484375 59.65625 109.066406 60.738281 C 109.246094 61.0625 109.433594 61.382812 109.636719 61.695312 C 109.824219 61.984375 110.140625 62.144531 110.464844 62.144531 C 110.648438 62.144531 110.835938 62.089844 111 61.984375 C 111.457031 61.683594 111.585938 61.074219 111.289062 60.617188 C 111.117188 60.351562 110.953125 60.078125 110.804688 59.800781 " fill-opacity="1" fill-rule="nonzero"/><path fill="#bebdbb" d="M 147.039062 40.578125 C 146.496094 40.625 146.09375 41.105469 146.140625 41.648438 C 146.289062 43.339844 146.402344 44.835938 146.488281 46.222656 C 146.519531 46.746094 146.953125 47.148438 147.46875 47.148438 C 147.492188 47.148438 147.511719 47.148438 147.53125 47.148438 C 148.074219 47.113281 148.488281 46.644531 148.457031 46.101562 C 148.371094 44.695312 148.257812 43.183594 148.109375 41.476562 C 148.0625 40.933594 147.589844 40.53125 147.039062 40.578125 " fill-opacity="1" fill-rule="nonzero"/><path fill="#bebdbb" d="M 144.886719 27.871094 C 144.933594 28.386719 145.363281 28.777344 145.871094 28.777344 C 145.898438 28.777344 145.925781 28.777344 145.957031 28.773438 C 146.5 28.726562 146.902344 28.25 146.855469 27.707031 L 146.808594 27.171875 C 146.695312 25.847656 146.578125 24.476562 146.527344 23.152344 C 146.507812 22.605469 146.039062 22.179688 145.503906 22.203125 C 144.957031 22.226562 144.535156 22.683594 144.554688 23.230469 C 144.609375 24.601562 144.726562 25.992188 144.84375 27.339844 L 144.886719 27.871094 " fill-opacity="1" fill-rule="nonzero"/><path fill="#bebdbb" d="M 145.574219 19.570312 C 145.617188 19.574219 145.660156 19.578125 145.703125 19.578125 C 146.191406 19.578125 146.617188 19.214844 146.679688 18.71875 C 146.859375 17.375 147.167969 16.164062 147.617188 15.039062 C 147.679688 14.882812 147.75 14.734375 147.820312 14.585938 C 148.050781 14.09375 147.839844 13.503906 147.347656 13.269531 C 146.859375 13.039062 146.269531 13.246094 146.035156 13.738281 C 145.953125 13.914062 145.875 14.089844 145.792969 14.285156 C 145.273438 15.585938 144.921875 16.949219 144.722656 18.457031 C 144.652344 19 145.03125 19.496094 145.574219 19.570312 " fill-opacity="1" fill-rule="nonzero"/><path fill="#bebdbb" d="M 146.792969 37.957031 C 147.335938 37.902344 147.730469 37.421875 147.679688 36.875 L 147.566406 35.695312 C 147.453125 34.5625 147.34375 33.425781 147.234375 32.292969 C 147.1875 31.746094 146.707031 31.347656 146.160156 31.398438 C 145.621094 31.449219 145.21875 31.933594 145.269531 32.476562 C 145.378906 33.613281 145.488281 34.75 145.601562 35.886719 L 145.714844 37.066406 C 145.765625 37.578125 146.195312 37.960938 146.695312 37.960938 C 146.726562 37.960938 146.761719 37.960938 146.792969 37.957031 " fill-opacity="1" fill-rule="nonzero"/><path fill="#bebdbb" d="M 139.441406 65.386719 C 138.222656 65.898438 136.828125 66.183594 135.300781 66.238281 C 134.753906 66.257812 134.328125 66.71875 134.351562 67.261719 C 134.367188 67.796875 134.804688 68.214844 135.335938 68.214844 C 135.347656 68.214844 135.359375 68.214844 135.371094 68.214844 C 137.136719 68.148438 138.761719 67.8125 140.199219 67.210938 C 140.703125 67 140.941406 66.421875 140.730469 65.917969 C 140.519531 65.414062 139.941406 65.179688 139.441406 65.386719 " fill-opacity="1" fill-rule="nonzero"/><path fill="#bebdbb" d="M 146.378906 58.839844 C 145.882812 58.613281 145.296875 58.835938 145.074219 59.332031 C 144.457031 60.695312 143.679688 61.917969 142.765625 62.96875 C 142.410156 63.378906 142.453125 64.003906 142.863281 64.363281 C 143.050781 64.523438 143.28125 64.605469 143.511719 64.605469 C 143.785156 64.605469 144.058594 64.492188 144.253906 64.265625 C 145.292969 63.074219 146.175781 61.6875 146.871094 60.148438 C 147.097656 59.652344 146.875 59.066406 146.378906 58.839844 " fill-opacity="1" fill-rule="nonzero"/><path fill="#bebdbb" d="M 153.230469 7.214844 C 151.621094 7.847656 150.203125 8.703125 149.011719 9.761719 C 148.605469 10.121094 148.566406 10.746094 148.929688 11.15625 C 149.125 11.375 149.394531 11.488281 149.667969 11.488281 C 149.902344 11.488281 150.132812 11.40625 150.320312 11.238281 C 151.339844 10.335938 152.558594 9.601562 153.949219 9.058594 C 154.457031 8.859375 154.707031 8.285156 154.511719 7.777344 C 154.3125 7.269531 153.738281 7.019531 153.230469 7.214844 " fill-opacity="1" fill-rule="nonzero"/><path fill="#bebdbb" d="M 147.671875 49.777344 C 147.664062 49.777344 147.65625 49.777344 147.648438 49.777344 C 147.101562 49.789062 146.671875 50.242188 146.683594 50.789062 C 146.699219 51.472656 146.707031 52.15625 146.707031 52.8125 C 146.640625 53.609375 146.53125 54.402344 146.382812 55.164062 C 146.277344 55.699219 146.625 56.21875 147.160156 56.320312 C 147.226562 56.335938 147.289062 56.339844 147.351562 56.339844 C 147.8125 56.339844 148.226562 56.011719 148.320312 55.539062 C 148.484375 54.695312 148.605469 53.820312 148.675781 52.9375 C 148.679688 52.910156 148.679688 52.882812 148.679688 52.855469 C 148.679688 52.167969 148.671875 51.460938 148.65625 50.742188 C 148.644531 50.207031 148.207031 49.777344 147.671875 49.777344 " fill-opacity="1" fill-rule="nonzero"/><path fill="#bebdbb" d="M 163.636719 7.152344 C 163.691406 6.609375 163.292969 6.125 162.75 6.070312 C 161.125 5.910156 159.492188 5.917969 157.949219 6.085938 C 157.40625 6.144531 157.015625 6.632812 157.074219 7.175781 C 157.132812 7.679688 157.558594 8.054688 158.054688 8.054688 C 158.09375 8.054688 158.128906 8.054688 158.164062 8.050781 C 159.574219 7.894531 161.070312 7.890625 162.558594 8.039062 C 163.097656 8.09375 163.582031 7.695312 163.636719 7.152344 " fill-opacity="1" fill-rule="nonzero"/></svg>